<svg width="58" height="15" viewBox="0 0 58 15" fill="none" xmlns="http://www.w3.org/2000/svg">
<path d="M4.096 14.392V13.16C3.05067 13.0427 2.224 12.6693 1.616 12.04C1.008 11.4107 0.704 10.6107 0.704 9.64H2.112C2.112 10.2053 2.27733 10.712 2.608 11.16C2.94933 11.5973 3.44533 11.88 4.096 12.008V7.672C4.02133 7.65067 3.94133 7.62933 3.856 7.608C3.78133 7.576 3.70667 7.54933 3.632 7.528C2.768 7.22933 2.128 6.86133 1.712 6.424C1.296 5.976 1.088 5.39467 1.088 4.68C1.07733 3.848 1.33867 3.15467 1.872 2.6C2.416 2.04533 3.15733 1.72533 4.096 1.64V0.344H5.2V1.64C6.096 1.74667 6.81067 2.08267 7.344 2.648C7.87733 3.21333 8.14933 3.90133 8.16 4.712H6.752C6.752 4.31733 6.624 3.93867 6.368 3.576C6.112 3.20267 5.72267 2.952 5.2 2.824V6.696C5.28533 6.71733 5.37067 6.744 5.456 6.776C5.54133 6.808 5.632 6.83467 5.728 6.856C6.26133 7.048 6.74133 7.272 7.168 7.528C7.59467 7.784 7.92533 8.11467 8.16 8.52C8.40533 8.92533 8.528 9.44267 8.528 10.072C8.528 10.5733 8.40533 11.048 8.16 11.496C7.91467 11.944 7.54133 12.3227 7.04 12.632C6.54933 12.9413 5.936 13.1227 5.2 13.176V14.392H4.096ZM2.48 4.552C2.48 5.04267 2.624 5.416 2.912 5.672C3.2 5.91733 3.59467 6.13067 4.096 6.312V2.792C3.616 2.86667 3.22667 3.05867 2.928 3.368C2.62933 3.66667 2.48 4.06133 2.48 4.552ZM7.136 10.152C7.136 9.53333 6.95467 9.07467 6.592 8.776C6.22933 8.47733 5.76533 8.232 5.2 8.04V12.04C5.81867 11.9653 6.29333 11.752 6.624 11.4C6.96533 11.048 7.136 10.632 7.136 10.152ZM18.7004 13.192C17.8897 13.192 17.207 13.0427 16.6524 12.744C16.0977 12.4347 15.6497 12.024 15.3084 11.512C14.9777 11 14.7324 10.4293 14.5724 9.8C14.423 9.16 14.3484 8.50933 14.3484 7.848C14.3484 6.61067 14.519 5.528 14.8604 4.6C15.2017 3.66133 15.6924 2.93067 16.3324 2.408C16.983 1.87467 17.767 1.608 18.6844 1.608C19.3884 1.608 19.991 1.74667 20.4924 2.024C20.9937 2.30133 21.3884 2.67467 21.6764 3.144C21.975 3.60267 22.1617 4.11467 22.2364 4.68H20.9884C20.871 4.072 20.6097 3.60267 20.2044 3.272C19.799 2.94133 19.287 2.776 18.6684 2.776C17.8257 2.776 17.1164 3.176 16.5404 3.976C15.975 4.76533 15.671 6.00267 15.6284 7.688C15.8844 7.18667 16.2897 6.75467 16.8444 6.392C17.4097 6.01867 18.087 5.832 18.8764 5.832C19.5164 5.832 20.1137 5.98133 20.6684 6.28C21.2337 6.57867 21.6924 7 22.0444 7.544C22.3964 8.07733 22.5724 8.70667 22.5724 9.432C22.5724 10.0613 22.4177 10.664 22.1084 11.24C21.799 11.816 21.351 12.2853 20.7644 12.648C20.1884 13.0107 19.5004 13.192 18.7004 13.192ZM18.6044 12.008C19.1057 12.008 19.5537 11.9013 19.9484 11.688C20.343 11.4747 20.6524 11.1813 20.8764 10.808C21.1004 10.424 21.2124 9.98667 21.2124 9.496C21.2124 8.73867 20.9617 8.136 20.4604 7.688C19.9697 7.22933 19.351 7 18.6044 7C18.103 7 17.655 7.11733 17.2604 7.352C16.8657 7.576 16.551 7.88 16.3164 8.264C16.0924 8.648 15.9804 9.064 15.9804 9.512C15.9804 9.992 16.0924 10.424 16.3164 10.808C16.551 11.1813 16.8657 11.4747 17.2604 11.688C17.655 11.9013 18.103 12.008 18.6044 12.008ZM28.242 13.192C27.474 13.192 26.8073 13.0533 26.242 12.776C25.6767 12.4987 25.2233 12.12 24.882 11.64C24.5513 11.1493 24.3487 10.5947 24.274 9.976H25.586C25.714 10.5947 26.0127 11.096 26.482 11.48C26.9513 11.8533 27.5433 12.04 28.258 12.04C28.7913 12.04 29.25 11.9173 29.634 11.672C30.018 11.416 30.3113 11.0747 30.514 10.648C30.7273 10.2213 30.834 9.74667 30.834 9.224C30.834 8.392 30.5993 7.72 30.13 7.208C29.6607 6.696 29.0527 6.44 28.306 6.44C27.6873 6.44 27.1593 6.57867 26.722 6.856C26.2847 7.13333 25.9647 7.496 25.762 7.944H24.482L25.442 1.8H31.314V2.968H26.482L25.826 6.376C26.082 6.06667 26.434 5.81067 26.882 5.608C27.3407 5.40533 27.8633 5.304 28.45 5.304C29.186 5.304 29.826 5.47467 30.37 5.816C30.9247 6.15733 31.3567 6.62133 31.666 7.208C31.9753 7.79467 32.13 8.46133 32.13 9.208C32.13 9.92267 31.9753 10.584 31.666 11.192C31.3673 11.8 30.9247 12.2853 30.338 12.648C29.762 13.0107 29.0633 13.192 28.242 13.192ZM33.0789 14.904L34.0069 11.368H35.3989L34.0069 14.904H33.0789ZM41.4426 13.192C40.4506 13.192 39.592 12.952 38.8666 12.472C38.152 11.9813 37.6026 11.304 37.2186 10.44C36.8346 9.56533 36.6426 8.552 36.6426 7.4C36.6426 6.248 36.8346 5.24 37.2186 4.376C37.6026 3.50133 38.152 2.824 38.8666 2.344C39.592 1.85333 40.4506 1.608 41.4426 1.608C42.4346 1.608 43.288 1.85333 44.0026 2.344C44.7173 2.824 45.2666 3.50133 45.6506 4.376C46.0346 5.24 46.2266 6.248 46.2266 7.4C46.2266 8.552 46.0346 9.56533 45.6506 10.44C45.2666 11.304 44.7173 11.9813 44.0026 12.472C43.288 12.952 42.4346 13.192 41.4426 13.192ZM41.4426 12.008C42.0933 12.008 42.6746 11.8267 43.1866 11.464C43.7093 11.0907 44.1146 10.5627 44.4026 9.88C44.7013 9.18667 44.8506 8.36 44.8506 7.4C44.8506 6.44 44.7013 5.61867 44.4026 4.936C44.1146 4.25333 43.7093 3.73067 43.1866 3.368C42.6746 2.99467 42.0933 2.808 41.4426 2.808C40.7813 2.808 40.1946 2.99467 39.6826 3.368C39.1706 3.73067 38.7653 4.25333 38.4666 4.936C38.168 5.61867 38.0186 6.44 38.0186 7.4C38.0186 8.36 38.168 9.18667 38.4666 9.88C38.7653 10.5627 39.1706 11.0907 39.6826 11.464C40.1946 11.8267 40.7813 12.008 41.4426 12.008ZM52.5364 13.192C51.5444 13.192 50.6857 12.952 49.9604 12.472C49.2457 11.9813 48.6964 11.304 48.3124 10.44C47.9284 9.56533 47.7364 8.552 47.7364 7.4C47.7364 6.248 47.9284 5.24 48.3124 4.376C48.6964 3.50133 49.2457 2.824 49.9604 2.344C50.6857 1.85333 51.5444 1.608 52.5364 1.608C53.5284 1.608 54.3817 1.85333 55.0964 2.344C55.811 2.824 56.3604 3.50133 56.7444 4.376C57.1284 5.24 57.3204 6.248 57.3204 7.4C57.3204 8.552 57.1284 9.56533 56.7444 10.44C56.3604 11.304 55.811 11.9813 55.0964 12.472C54.3817 12.952 53.5284 13.192 52.5364 13.192ZM52.5364 12.008C53.187 12.008 53.7684 11.8267 54.2804 11.464C54.803 11.0907 55.2084 10.5627 55.4964 9.88C55.795 9.18667 55.9444 8.36 55.9444 7.4C55.9444 6.44 55.795 5.61867 55.4964 4.936C55.2084 4.25333 54.803 3.73067 54.2804 3.368C53.7684 2.99467 53.187 2.808 52.5364 2.808C51.875 2.808 51.2884 2.99467 50.7764 3.368C50.2644 3.73067 49.859 4.25333 49.5604 4.936C49.2617 5.61867 49.1124 6.44 49.1124 7.4C49.1124 8.36 49.2617 9.18667 49.5604 9.88C49.859 10.5627 50.2644 11.0907 50.7764 11.464C51.2884 11.8267 51.875 12.008 52.5364 12.008Z" fill="#707070"/>
</svg>
