<svg width="57" height="15" viewBox="0 0 57 15" fill="none" xmlns="http://www.w3.org/2000/svg">
<path d="M4.224 14.392V13.16C3.18933 13.0427 2.34667 12.68 1.696 12.072C1.04533 11.464 0.709333 10.648 0.688 9.624H2.848C2.86933 10.0507 2.99733 10.424 3.232 10.744C3.47733 11.064 3.808 11.2827 4.224 11.4V8.024C4.128 7.992 4.02667 7.96 3.92 7.928C3.824 7.896 3.72267 7.864 3.616 7.832C2.752 7.53333 2.09067 7.14933 1.632 6.68C1.184 6.21067 0.96 5.58667 0.96 4.808C0.949333 3.89067 1.248 3.15467 1.856 2.6C2.464 2.03467 3.25333 1.70933 4.224 1.624V0.327999H5.296V1.64C6.256 1.736 7.02933 2.072 7.616 2.648C8.21333 3.21333 8.528 3.944 8.56 4.84H6.368C6.35733 4.53067 6.256 4.248 6.064 3.992C5.88267 3.72533 5.62667 3.53867 5.296 3.432V6.408C5.38133 6.44 5.46667 6.472 5.552 6.504C5.63733 6.52533 5.72267 6.552 5.808 6.584C6.36267 6.776 6.86933 7 7.328 7.256C7.78667 7.512 8.15467 7.85333 8.432 8.28C8.70933 8.696 8.848 9.23467 8.848 9.896C8.848 10.4507 8.70933 10.968 8.432 11.448C8.16533 11.928 7.76533 12.328 7.232 12.648C6.70933 12.9573 6.064 13.1333 5.296 13.176V14.392H4.224ZM3.104 4.664C3.104 5.00533 3.20533 5.28267 3.408 5.496C3.61067 5.69867 3.88267 5.87467 4.224 6.024V3.368C3.89333 3.432 3.62133 3.576 3.408 3.8C3.20533 4.024 3.104 4.312 3.104 4.664ZM6.672 10.04C6.672 9.61333 6.544 9.27733 6.288 9.032C6.032 8.78667 5.70133 8.57867 5.296 8.408V11.448C5.72267 11.384 6.05867 11.2293 6.304 10.984C6.54933 10.7387 6.672 10.424 6.672 10.04ZM18.3994 13.192C17.6314 13.192 16.938 13.0587 16.3194 12.792C15.7007 12.5147 15.2047 12.1253 14.8314 11.624C14.4687 11.1227 14.2874 10.5413 14.2874 9.88C14.2874 9.19733 14.4634 8.6 14.8154 8.088C15.178 7.576 15.6527 7.208 16.2394 6.984C15.7274 6.76 15.322 6.44 15.0234 6.024C14.7247 5.59733 14.5754 5.12267 14.5754 4.6C14.5754 4.06667 14.7194 3.576 15.0074 3.128C15.2954 2.66933 15.722 2.30133 16.2874 2.024C16.8634 1.74667 17.5674 1.608 18.3994 1.608C19.2314 1.608 19.93 1.74667 20.4954 2.024C21.0607 2.30133 21.4874 2.66933 21.7754 3.128C22.0634 3.576 22.2074 4.06667 22.2074 4.6C22.2074 5.112 22.0527 5.58667 21.7434 6.024C21.4447 6.45067 21.0447 6.77067 20.5434 6.984C21.1407 7.208 21.6154 7.576 21.9674 8.088C22.3194 8.6 22.4954 9.19733 22.4954 9.88C22.4954 10.5413 22.314 11.1227 21.9514 11.624C21.5887 12.1253 21.0927 12.5147 20.4634 12.792C19.8447 13.0587 19.1567 13.192 18.3994 13.192ZM18.3994 6.376C18.954 6.376 19.3914 6.232 19.7114 5.944C20.0314 5.656 20.1914 5.288 20.1914 4.84C20.1914 4.34933 20.0314 3.96533 19.7114 3.688C19.402 3.41067 18.9647 3.272 18.3994 3.272C17.8234 3.272 17.3807 3.41067 17.0714 3.688C16.762 3.96533 16.6074 4.34933 16.6074 4.84C16.6074 5.29867 16.762 5.672 17.0714 5.96C17.3914 6.23733 17.834 6.376 18.3994 6.376ZM18.3994 11.48C19.082 11.48 19.5994 11.3147 19.9514 10.984C20.3034 10.6427 20.4794 10.216 20.4794 9.704C20.4794 9.13867 20.2927 8.696 19.9194 8.376C19.5567 8.056 19.05 7.896 18.3994 7.896C17.7487 7.896 17.2314 8.056 16.8474 8.376C16.474 8.696 16.2874 9.13867 16.2874 9.704C16.2874 10.216 16.4634 10.6427 16.8154 10.984C17.178 11.3147 17.706 11.48 18.3994 11.48ZM24.9468 13L29.1708 3.544H23.6508V1.8H31.2828V3.256L27.0748 13H24.9468ZM31.1928 14.856L32.1048 10.872H34.0888L32.5368 14.856H31.1928ZM40.3519 13.192C39.3172 13.192 38.4319 12.952 37.6959 12.472C36.9599 11.9813 36.3892 11.304 35.9839 10.44C35.5892 9.56533 35.3919 8.552 35.3919 7.4C35.3919 6.25867 35.5892 5.25067 35.9839 4.376C36.3892 3.50133 36.9599 2.824 37.6959 2.344C38.4319 1.85333 39.3172 1.608 40.3519 1.608C41.3865 1.608 42.2719 1.85333 43.0079 2.344C43.7439 2.824 44.3092 3.50133 44.7039 4.376C45.1092 5.25067 45.3119 6.25867 45.3119 7.4C45.3119 8.552 45.1092 9.56533 44.7039 10.44C44.3092 11.304 43.7439 11.9813 43.0079 12.472C42.2719 12.952 41.3865 13.192 40.3519 13.192ZM40.3519 11.352C41.1945 11.352 41.8825 11 42.4159 10.296C42.9492 9.592 43.2159 8.62667 43.2159 7.4C43.2159 6.17333 42.9492 5.208 42.4159 4.504C41.8825 3.8 41.1945 3.448 40.3519 3.448C39.4985 3.448 38.8052 3.8 38.2719 4.504C37.7492 5.208 37.4879 6.17333 37.4879 7.4C37.4879 8.62667 37.7492 9.592 38.2719 10.296C38.8052 11 39.4985 11.352 40.3519 11.352ZM51.7113 13.192C50.6766 13.192 49.7913 12.952 49.0553 12.472C48.3193 11.9813 47.7486 11.304 47.3433 10.44C46.9486 9.56533 46.7513 8.552 46.7513 7.4C46.7513 6.25867 46.9486 5.25067 47.3433 4.376C47.7486 3.50133 48.3193 2.824 49.0553 2.344C49.7913 1.85333 50.6766 1.608 51.7113 1.608C52.7459 1.608 53.6313 1.85333 54.3673 2.344C55.1033 2.824 55.6686 3.50133 56.0633 4.376C56.4686 5.25067 56.6713 6.25867 56.6713 7.4C56.6713 8.552 56.4686 9.56533 56.0633 10.44C55.6686 11.304 55.1033 11.9813 54.3673 12.472C53.6313 12.952 52.7459 13.192 51.7113 13.192ZM51.7113 11.352C52.5539 11.352 53.2419 11 53.7753 10.296C54.3086 9.592 54.5753 8.62667 54.5753 7.4C54.5753 6.17333 54.3086 5.208 53.7753 4.504C53.2419 3.8 52.5539 3.448 51.7113 3.448C50.8579 3.448 50.1646 3.8 49.6313 4.504C49.1086 5.208 48.8473 6.17333 48.8473 7.4C48.8473 8.62667 49.1086 9.592 49.6313 10.296C50.1646 11 50.8579 11.352 51.7113 11.352Z" fill="black"/>
</svg>
