<svg width="30" height="16" viewBox="0 0 30 16" fill="none" xmlns="http://www.w3.org/2000/svg">
<path d="M0.184 12V0.799999H4.12C4.90933 0.799999 5.56 0.927999 6.072 1.184C6.59467 1.42933 6.984 1.77067 7.24 2.208C7.496 2.63467 7.624 3.11467 7.624 3.648C7.624 4.37333 7.42667 4.944 7.032 5.36C6.648 5.776 6.184 6.064 5.64 6.224C6.056 6.29867 6.43467 6.464 6.776 6.72C7.11733 6.976 7.384 7.296 7.576 7.68C7.77867 8.064 7.88 8.48533 7.88 8.944C7.88 9.50933 7.74133 10.0267 7.464 10.496C7.18667 10.9547 6.776 11.3227 6.232 11.6C5.688 11.8667 5.02667 12 4.248 12H0.184ZM1.528 5.696H4.024C4.73867 5.696 5.288 5.53067 5.672 5.2C6.056 4.85867 6.248 4.38933 6.248 3.792C6.248 3.22667 6.056 2.77333 5.672 2.432C5.29867 2.09067 4.73333 1.92 3.976 1.92H1.528V5.696ZM1.528 10.88H4.104C4.872 10.88 5.464 10.704 5.88 10.352C6.296 9.98933 6.504 9.488 6.504 8.848C6.504 8.21867 6.28533 7.71733 5.848 7.344C5.41067 6.96 4.81867 6.768 4.072 6.768H1.528V10.88ZM9.729 12V0.48H11.073V12H9.729ZM16.8919 12.192C16.1452 12.192 15.4732 12.0213 14.8759 11.68C14.2785 11.3387 13.8039 10.8587 13.4519 10.24C13.1105 9.61067 12.9399 8.87467 12.9399 8.032C12.9399 7.18933 13.1159 6.45867 13.4679 5.84C13.8199 5.21067 14.2945 4.72533 14.8919 4.384C15.4999 4.04267 16.1772 3.872 16.9239 3.872C17.6705 3.872 18.3425 4.04267 18.9399 4.384C19.5372 4.72533 20.0065 5.21067 20.3479 5.84C20.6999 6.45867 20.8759 7.18933 20.8759 8.032C20.8759 8.87467 20.6999 9.61067 20.3479 10.24C19.9959 10.8587 19.5159 11.3387 18.9079 11.68C18.3105 12.0213 17.6385 12.192 16.8919 12.192ZM16.8919 11.04C17.3505 11.04 17.7772 10.928 18.1719 10.704C18.5665 10.48 18.8865 10.144 19.1319 9.696C19.3772 9.248 19.4999 8.69333 19.4999 8.032C19.4999 7.37067 19.3772 6.816 19.1319 6.368C18.8972 5.92 18.5825 5.584 18.1879 5.36C17.7932 5.136 17.3719 5.024 16.9239 5.024C16.4652 5.024 16.0385 5.136 15.6439 5.36C15.2492 5.584 14.9292 5.92 14.6839 6.368C14.4385 6.816 14.3159 7.37067 14.3159 8.032C14.3159 8.69333 14.4385 9.248 14.6839 9.696C14.9292 10.144 15.2439 10.48 15.6279 10.704C16.0225 10.928 16.4439 11.04 16.8919 11.04ZM25.5369 9.504C25.0889 9.504 24.6782 9.44533 24.3049 9.328L23.5049 10.08C23.6222 10.1653 23.7662 10.24 23.9369 10.304C24.1182 10.3573 24.3742 10.4107 24.7049 10.464C25.0355 10.5067 25.4995 10.5547 26.0969 10.608C27.1635 10.6827 27.9262 10.928 28.3849 11.344C28.8435 11.76 29.0729 12.304 29.0729 12.976C29.0729 13.4347 28.9449 13.872 28.6889 14.288C28.4435 14.704 28.0595 15.0453 27.5369 15.312C27.0249 15.5787 26.3635 15.712 25.5529 15.712C24.8382 15.712 24.2035 15.616 23.6489 15.424C23.0942 15.2427 22.6622 14.96 22.3529 14.576C22.0435 14.2027 21.8889 13.728 21.8889 13.152C21.8889 12.8533 21.9689 12.528 22.1289 12.176C22.2889 11.8347 22.5875 11.5093 23.0249 11.2C22.7902 11.104 22.5875 11.0027 22.4169 10.896C22.2569 10.7787 22.1075 10.6507 21.9689 10.512V10.144L23.3289 8.8C22.6995 8.26667 22.3849 7.56267 22.3849 6.688C22.3849 6.16533 22.5075 5.69067 22.7529 5.264C22.9982 4.83733 23.3555 4.50133 23.8249 4.256C24.2942 4 24.8649 3.872 25.5369 3.872C25.9955 3.872 26.4115 3.936 26.7849 4.064H29.7129V5.072L28.2249 5.136C28.5342 5.584 28.6889 6.10133 28.6889 6.688C28.6889 7.21067 28.5609 7.68533 28.3049 8.112C28.0595 8.53867 27.7022 8.88 27.2329 9.136C26.7742 9.38133 26.2089 9.504 25.5369 9.504ZM25.5369 8.4C26.1022 8.4 26.5502 8.256 26.8809 7.968C27.2222 7.66933 27.3929 7.24267 27.3929 6.688C27.3929 6.144 27.2222 5.728 26.8809 5.44C26.5502 5.14133 26.1022 4.992 25.5369 4.992C24.9609 4.992 24.5022 5.14133 24.1609 5.44C23.8302 5.728 23.6649 6.144 23.6649 6.688C23.6649 7.24267 23.8302 7.66933 24.1609 7.968C24.5022 8.256 24.9609 8.4 25.5369 8.4ZM23.2009 13.024C23.2009 13.5573 23.4249 13.952 23.8729 14.208C24.3209 14.4747 24.8809 14.608 25.5529 14.608C26.2142 14.608 26.7422 14.464 27.1369 14.176C27.5422 13.888 27.7449 13.504 27.7449 13.024C27.7449 12.6827 27.6062 12.384 27.3289 12.128C27.0515 11.8827 26.5395 11.7387 25.7929 11.696C25.2062 11.6533 24.6995 11.6 24.2729 11.536C23.8355 11.7707 23.5475 12.0213 23.4089 12.288C23.2702 12.5653 23.2009 12.8107 23.2009 13.024Z" fill="black"/>
</svg>
