<svg width="160" height="13" viewBox="0 0 160 13" fill="none" xmlns="http://www.w3.org/2000/svg">
<path d="M6.096 12.192C4.99733 12.192 4.048 11.952 3.248 11.472C2.45867 10.9813 1.84533 10.304 1.408 9.44C0.970667 8.56533 0.752 7.552 0.752 6.4C0.752 5.25867 0.970667 4.256 1.408 3.392C1.84533 2.51733 2.45867 1.83467 3.248 1.344C4.048 0.853333 4.99733 0.608 6.096 0.608C7.376 0.608 8.416 0.917333 9.216 1.536C10.0267 2.144 10.544 2.99733 10.768 4.096H9.28C9.10933 3.40267 8.75733 2.848 8.224 2.432C7.70133 2.00533 6.992 1.792 6.096 1.792C5.296 1.792 4.59733 1.97867 4 2.352C3.40267 2.71467 2.93867 3.24267 2.608 3.936C2.288 4.61867 2.128 5.44 2.128 6.4C2.128 7.36 2.288 8.18667 2.608 8.88C2.93867 9.56267 3.40267 10.0907 4 10.464C4.59733 10.8267 5.296 11.008 6.096 11.008C6.992 11.008 7.70133 10.8053 8.224 10.4C8.75733 9.984 9.10933 9.43467 9.28 8.752H10.768C10.544 9.82933 10.0267 10.672 9.216 11.28C8.416 11.888 7.376 12.192 6.096 12.192ZM11.73 12L15.858 0.799999H17.282L21.394 12H19.97L18.946 9.12H14.178L13.138 12H11.73ZM14.578 8.032H18.546L16.562 2.496L14.578 8.032ZM23.059 12V0.799999H24.403V10.928H29.619V12H23.059ZM35.3304 12.192C34.2317 12.192 33.2824 11.952 32.4824 11.472C31.693 10.9813 31.0797 10.304 30.6424 9.44C30.205 8.56533 29.9864 7.552 29.9864 6.4C29.9864 5.25867 30.205 4.256 30.6424 3.392C31.0797 2.51733 31.693 1.83467 32.4824 1.344C33.2824 0.853333 34.2317 0.608 35.3304 0.608C36.6104 0.608 37.6504 0.917333 38.4504 1.536C39.261 2.144 39.7784 2.99733 40.0024 4.096H38.5144C38.3437 3.40267 37.9917 2.848 37.4584 2.432C36.9357 2.00533 36.2264 1.792 35.3304 1.792C34.5304 1.792 33.8317 1.97867 33.2344 2.352C32.637 2.71467 32.173 3.24267 31.8424 3.936C31.5224 4.61867 31.3624 5.44 31.3624 6.4C31.3624 7.36 31.5224 8.18667 31.8424 8.88C32.173 9.56267 32.637 10.0907 33.2344 10.464C33.8317 10.8267 34.5304 11.008 35.3304 11.008C36.2264 11.008 36.9357 10.8053 37.4584 10.4C37.9917 9.984 38.3437 9.43467 38.5144 8.752H40.0024C39.7784 9.82933 39.261 10.672 38.4504 11.28C37.6504 11.888 36.6104 12.192 35.3304 12.192ZM45.982 12.192C45.214 12.192 44.5153 12.0427 43.886 11.744C43.2673 11.4347 42.7713 10.96 42.398 10.32C42.0247 9.68 41.838 8.864 41.838 7.872V0.799999H43.182V7.888C43.182 8.976 43.4433 9.76533 43.966 10.256C44.4887 10.7467 45.1713 10.992 46.014 10.992C46.8567 10.992 47.534 10.7467 48.046 10.256C48.558 9.76533 48.814 8.976 48.814 7.888V0.799999H50.158V7.872C50.158 8.864 49.9713 9.68 49.598 10.32C49.2247 10.96 48.7233 11.4347 48.094 11.744C47.4647 12.0427 46.7607 12.192 45.982 12.192ZM52.434 12V0.799999H53.778V10.928H58.994V12H52.434ZM60.1363 12L64.2643 0.799999H65.6883L69.8003 12H68.3763L67.3523 9.12H62.5843L61.5443 12H60.1363ZM62.9843 8.032H66.9523L64.9683 2.496L62.9843 8.032ZM72.8236 12V1.904H69.4796V0.799999H77.5116V1.904H74.1676V12H72.8236ZM79.1528 12V0.799999H86.0808V1.904H80.4968V5.808H85.6008V6.896H80.4968V10.896H86.0808V12H79.1528ZM95.9864 12.192C95.165 12.192 94.4504 12.0427 93.8424 11.744C93.2344 11.4453 92.765 11.0293 92.4344 10.496C92.1037 9.96267 91.9384 9.344 91.9384 8.64H93.3464C93.3464 9.07733 93.4477 9.48267 93.6504 9.856C93.853 10.2187 94.1464 10.512 94.5304 10.736C94.925 10.9493 95.4104 11.056 95.9864 11.056C96.7437 11.056 97.3304 10.8747 97.7464 10.512C98.1624 10.1493 98.3704 9.696 98.3704 9.152C98.3704 8.704 98.2744 8.34667 98.0824 8.08C97.8904 7.80267 97.629 7.57867 97.2984 7.408C96.9784 7.23733 96.605 7.088 96.1784 6.96C95.7624 6.832 95.325 6.688 94.8664 6.528C94.0024 6.22933 93.3624 5.86133 92.9464 5.424C92.5304 4.976 92.3224 4.39467 92.3224 3.68C92.3117 3.08267 92.4504 2.55467 92.7384 2.096C93.0264 1.62667 93.4317 1.264 93.9544 1.008C94.4877 0.741333 95.117 0.608 95.8424 0.608C96.557 0.608 97.1757 0.741333 97.6984 1.008C98.2317 1.27467 98.6424 1.64267 98.9304 2.112C99.229 2.58133 99.3837 3.11467 99.3944 3.712H97.9864C97.9864 3.40267 97.9064 3.09867 97.7464 2.8C97.5864 2.49067 97.341 2.24 97.0104 2.048C96.6904 1.856 96.285 1.76 95.7944 1.76C95.1864 1.74933 94.685 1.904 94.2904 2.224C93.9064 2.544 93.7144 2.98667 93.7144 3.552C93.7144 4.032 93.8477 4.4 94.1144 4.656C94.3917 4.912 94.7757 5.12533 95.2664 5.296C95.757 5.456 96.3224 5.64267 96.9624 5.856C97.4957 6.048 97.9757 6.272 98.4024 6.528C98.829 6.784 99.1597 7.11467 99.3944 7.52C99.6397 7.92533 99.7624 8.44267 99.7624 9.072C99.7624 9.60533 99.6237 10.112 99.3464 10.592C99.069 11.0613 98.6477 11.4453 98.0824 11.744C97.5277 12.0427 96.829 12.192 95.9864 12.192ZM101.668 12V0.799999H103.012V5.744H108.82V0.799999H110.164V12H108.82V6.848H103.012V12H101.668ZM112.528 12V0.799999H113.872V12H112.528ZM116.247 12V0.799999H119.927C120.801 0.799999 121.521 0.943999 122.087 1.232C122.652 1.52 123.068 1.90933 123.335 2.4C123.612 2.89067 123.751 3.44533 123.751 4.064C123.751 4.672 123.617 5.22133 123.351 5.712C123.084 6.20267 122.668 6.59733 122.103 6.896C121.537 7.184 120.812 7.328 119.927 7.328H117.591V12H116.247ZM117.591 6.192H119.895C120.791 6.192 121.425 6.00533 121.799 5.632C122.183 5.248 122.375 4.72533 122.375 4.064C122.375 3.392 122.183 2.86933 121.799 2.496C121.425 2.112 120.791 1.92 119.895 1.92H117.591V6.192ZM125.512 12V0.799999H129.192C130.067 0.799999 130.787 0.943999 131.352 1.232C131.917 1.52 132.333 1.90933 132.6 2.4C132.877 2.89067 133.016 3.44533 133.016 4.064C133.016 4.672 132.883 5.22133 132.616 5.712C132.349 6.20267 131.933 6.59733 131.368 6.896C130.803 7.184 130.077 7.328 129.192 7.328H126.856V12H125.512ZM126.856 6.192H129.16C130.056 6.192 130.691 6.00533 131.064 5.632C131.448 5.248 131.64 4.72533 131.64 4.064C131.64 3.392 131.448 2.86933 131.064 2.496C130.691 2.112 130.056 1.92 129.16 1.92H126.856V6.192ZM134.778 12V0.799999H136.122V12H134.778ZM138.497 12V0.799999H139.841L145.809 9.776V0.799999H147.153V12H145.809L139.841 3.024V12H138.497ZM154.344 12.192C153.298 12.192 152.381 11.952 151.592 11.472C150.802 10.9813 150.189 10.304 149.752 9.44C149.314 8.56533 149.096 7.55733 149.096 6.416C149.096 5.27467 149.314 4.26667 149.752 3.392C150.2 2.51733 150.829 1.83467 151.64 1.344C152.461 0.853333 153.426 0.608 154.536 0.608C155.794 0.608 156.84 0.912 157.672 1.52C158.514 2.128 159.058 2.96533 159.304 4.032H157.752C157.602 3.36 157.245 2.82667 156.68 2.432C156.125 2.03733 155.41 1.84 154.536 1.84C153.714 1.84 153 2.02667 152.392 2.4C151.784 2.76267 151.309 3.28533 150.968 3.968C150.637 4.65067 150.472 5.46667 150.472 6.416C150.472 7.36533 150.637 8.18133 150.968 8.864C151.298 9.54667 151.757 10.0747 152.344 10.448C152.93 10.8107 153.613 10.992 154.392 10.992C155.586 10.992 156.488 10.6453 157.096 9.952C157.704 9.248 158.05 8.288 158.136 7.072H154.904V6.016H159.512V12H158.28L158.168 10.16C157.762 10.8107 157.266 11.312 156.68 11.664C156.093 12.016 155.314 12.192 154.344 12.192Z" fill="black"/>
</svg>
