<svg width="25" height="10" viewBox="0 0 25 10" fill="none" xmlns="http://www.w3.org/2000/svg">
<path d="M4.572 9.144C3.748 9.144 3.036 8.964 2.436 8.604C1.844 8.236 1.384 7.728 1.056 7.08C0.728 6.424 0.564 5.664 0.564 4.8C0.564 3.944 0.728 3.192 1.056 2.544C1.384 1.888 1.844 1.376 2.436 1.008C3.036 0.64 3.748 0.456 4.572 0.456C5.532 0.456 6.312 0.688 6.912 1.152C7.52 1.608 7.908 2.248 8.076 3.072H6.96C6.832 2.552 6.568 2.136 6.168 1.824C5.776 1.504 5.244 1.344 4.572 1.344C3.972 1.344 3.448 1.484 3 1.764C2.552 2.036 2.204 2.432 1.956 2.952C1.716 3.464 1.596 4.08 1.596 4.8C1.596 5.52 1.716 6.14 1.956 6.66C2.204 7.172 2.552 7.568 3 7.848C3.448 8.12 3.972 8.256 4.572 8.256C5.244 8.256 5.776 8.104 6.168 7.8C6.568 7.488 6.832 7.076 6.96 6.564H8.076C7.908 7.372 7.52 8.004 6.912 8.46C6.312 8.916 5.532 9.144 4.572 9.144ZM9.52472 9V0.599999H10.5327V9H9.52472ZM14.2818 9V1.428H11.7738V0.599999H17.7978V1.428H15.2898V9H14.2818ZM21.1166 9V5.808L18.3806 0.599999H19.5206L21.6206 4.848L23.7206 0.599999H24.8486L22.1246 5.808V9H21.1166Z" fill="#707070"/>
</svg>
