<svg width="71" height="16" viewBox="0 0 71 16" fill="none" xmlns="http://www.w3.org/2000/svg">
<path d="M6.272 12.192C5.17333 12.192 4.208 11.952 3.376 11.472C2.55467 10.9813 1.90933 10.2987 1.44 9.424C0.981333 8.54933 0.752 7.54133 0.752 6.4C0.752 5.25867 0.981333 4.256 1.44 3.392C1.90933 2.51733 2.55467 1.83467 3.376 1.344C4.208 0.853333 5.17333 0.608 6.272 0.608C7.38133 0.608 8.34667 0.853333 9.168 1.344C10 1.83467 10.6453 2.51733 11.104 3.392C11.5627 4.256 11.792 5.25867 11.792 6.4C11.792 7.54133 11.5627 8.54933 11.104 9.424C10.6453 10.2987 10 10.9813 9.168 11.472C8.34667 11.952 7.38133 12.192 6.272 12.192ZM6.272 11.008C7.09333 11.008 7.81333 10.8267 8.432 10.464C9.06133 10.0907 9.54667 9.56267 9.888 8.88C10.24 8.18667 10.416 7.36 10.416 6.4C10.416 5.44 10.24 4.61867 9.888 3.936C9.54667 3.25333 9.06133 2.73067 8.432 2.368C7.81333 1.99467 7.09333 1.808 6.272 1.808C5.45067 1.808 4.72533 1.99467 4.096 2.368C3.47733 2.73067 2.992 3.25333 2.64 3.936C2.29867 4.61867 2.128 5.44 2.128 6.4C2.128 7.36 2.29867 8.18667 2.64 8.88C2.992 9.56267 3.47733 10.0907 4.096 10.464C4.72533 10.8267 5.45067 11.008 6.272 11.008ZM16.5469 12.192C15.6082 12.192 14.8615 11.9093 14.3069 11.344C13.7522 10.768 13.4749 9.888 13.4749 8.704V4.064H14.8189V8.56C14.8189 10.2133 15.4962 11.04 16.8509 11.04C17.5442 11.04 18.1149 10.7947 18.5629 10.304C19.0215 9.80267 19.2509 9.09333 19.2509 8.176V4.064H20.5949V12H19.3789L19.2829 10.576C19.0375 11.0773 18.6695 11.472 18.1789 11.76C17.6989 12.048 17.1549 12.192 16.5469 12.192ZM22.8071 12V4.064H24.0231L24.1351 5.584C24.3805 5.06133 24.7538 4.64533 25.2551 4.336C25.7565 4.02667 26.3751 3.872 27.1111 3.872V5.28H26.7431C26.2738 5.28 25.8418 5.36533 25.4471 5.536C25.0525 5.696 24.7378 5.97333 24.5031 6.368C24.2685 6.76267 24.1511 7.30667 24.1511 8V12H22.8071ZM36.502 12.192C35.6807 12.192 34.966 12.0427 34.358 11.744C33.75 11.4453 33.2807 11.0293 32.95 10.496C32.6193 9.96267 32.454 9.344 32.454 8.64H33.862C33.862 9.07733 33.9633 9.48267 34.166 9.856C34.3687 10.2187 34.662 10.512 35.046 10.736C35.4407 10.9493 35.926 11.056 36.502 11.056C37.2593 11.056 37.846 10.8747 38.262 10.512C38.678 10.1493 38.886 9.696 38.886 9.152C38.886 8.704 38.79 8.34667 38.598 8.08C38.406 7.80267 38.1447 7.57867 37.814 7.408C37.494 7.23733 37.1207 7.088 36.694 6.96C36.278 6.832 35.8407 6.688 35.382 6.528C34.518 6.22933 33.878 5.86133 33.462 5.424C33.046 4.976 32.838 4.39467 32.838 3.68C32.8273 3.08267 32.966 2.55467 33.254 2.096C33.542 1.62667 33.9473 1.264 34.47 1.008C35.0033 0.741333 35.6327 0.608 36.358 0.608C37.0727 0.608 37.6913 0.741333 38.214 1.008C38.7473 1.27467 39.158 1.64267 39.446 2.112C39.7447 2.58133 39.8993 3.11467 39.91 3.712H38.502C38.502 3.40267 38.422 3.09867 38.262 2.8C38.102 2.49067 37.8567 2.24 37.526 2.048C37.206 1.856 36.8007 1.76 36.31 1.76C35.702 1.74933 35.2007 1.904 34.806 2.224C34.422 2.544 34.23 2.98667 34.23 3.552C34.23 4.032 34.3633 4.4 34.63 4.656C34.9073 4.912 35.2913 5.12533 35.782 5.296C36.2727 5.456 36.838 5.64267 37.478 5.856C38.0113 6.048 38.4913 6.272 38.918 6.528C39.3447 6.784 39.6753 7.11467 39.91 7.52C40.1553 7.92533 40.278 8.44267 40.278 9.072C40.278 9.60533 40.1393 10.112 39.862 10.592C39.5847 11.0613 39.1633 11.4453 38.598 11.744C38.0433 12.0427 37.3447 12.192 36.502 12.192ZM45.24 12C44.5147 12 43.944 11.824 43.528 11.472C43.112 11.12 42.904 10.4853 42.904 9.568V5.2H41.528V4.064H42.904L43.08 2.16H44.248V4.064H46.584V5.2H44.248V9.568C44.248 10.0693 44.3493 10.4107 44.552 10.592C44.7547 10.7627 45.112 10.848 45.624 10.848H46.456V12H45.24ZM51.6888 12.192C50.9421 12.192 50.2701 12.0213 49.6728 11.68C49.0754 11.3387 48.6008 10.8587 48.2488 10.24C47.9074 9.61067 47.7368 8.87467 47.7368 8.032C47.7368 7.18933 47.9128 6.45867 48.2648 5.84C48.6168 5.21067 49.0914 4.72533 49.6888 4.384C50.2968 4.04267 50.9741 3.872 51.7208 3.872C52.4674 3.872 53.1394 4.04267 53.7368 4.384C54.3341 4.72533 54.8034 5.21067 55.1448 5.84C55.4968 6.45867 55.6728 7.18933 55.6728 8.032C55.6728 8.87467 55.4968 9.61067 55.1448 10.24C54.7928 10.8587 54.3128 11.3387 53.7048 11.68C53.1074 12.0213 52.4354 12.192 51.6888 12.192ZM51.6888 11.04C52.1474 11.04 52.5741 10.928 52.9688 10.704C53.3634 10.48 53.6834 10.144 53.9288 9.696C54.1741 9.248 54.2968 8.69333 54.2968 8.032C54.2968 7.37067 54.1741 6.816 53.9288 6.368C53.6941 5.92 53.3794 5.584 52.9848 5.36C52.5901 5.136 52.1688 5.024 51.7208 5.024C51.2621 5.024 50.8354 5.136 50.4408 5.36C50.0461 5.584 49.7261 5.92 49.4808 6.368C49.2354 6.816 49.1128 7.37067 49.1128 8.032C49.1128 8.69333 49.2354 9.248 49.4808 9.696C49.7261 10.144 50.0408 10.48 50.4248 10.704C50.8194 10.928 51.2408 11.04 51.6888 11.04ZM57.5415 12V4.064H58.7575L58.8695 5.584C59.1148 5.06133 59.4882 4.64533 59.9895 4.336C60.4908 4.02667 61.1095 3.872 61.8455 3.872V5.28H61.4775C61.0082 5.28 60.5762 5.36533 60.1815 5.536C59.7868 5.696 59.4722 5.97333 59.2375 6.368C59.0028 6.76267 58.8855 7.30667 58.8855 8V12H57.5415ZM64.218 15.52L66.186 11.232H65.722L62.57 4.064H64.026L66.65 10.24L69.434 4.064H70.826L65.626 15.52H64.218Z" fill="black"/>
</svg>
