<svg width="341" height="16" viewBox="0 0 341 16" fill="none" xmlns="http://www.w3.org/2000/svg">
<path d="M6.352 12.064C5.25333 12.064 4.288 11.824 3.456 11.344C2.624 10.8533 1.97333 10.1813 1.504 9.328C1.04533 8.47467 0.816 7.49867 0.816 6.4C0.816 5.29067 1.04533 4.30933 1.504 3.456C1.97333 2.60267 2.624 1.936 3.456 1.456C4.288 0.975999 5.25333 0.735999 6.352 0.735999C7.45067 0.735999 8.416 0.975999 9.248 1.456C10.08 1.936 10.7253 2.60267 11.184 3.456C11.6533 4.30933 11.888 5.29067 11.888 6.4C11.888 7.49867 11.6533 8.47467 11.184 9.328C10.7253 10.1813 10.08 10.8533 9.248 11.344C8.416 11.824 7.45067 12.064 6.352 12.064ZM6.352 11.472C7.35467 11.472 8.224 11.2587 8.96 10.832C9.696 10.4053 10.2613 9.808 10.656 9.04C11.0613 8.272 11.264 7.392 11.264 6.4C11.264 5.38667 11.0613 4.50133 10.656 3.744C10.2613 2.976 9.696 2.37867 8.96 1.952C8.224 1.52533 7.35467 1.312 6.352 1.312C5.34933 1.312 4.48 1.52533 3.744 1.952C3.008 2.37867 2.43733 2.976 2.032 3.744C1.63733 4.50133 1.44 5.38667 1.44 6.4C1.44 7.392 1.63733 8.272 2.032 9.04C2.43733 9.808 3.008 10.4053 3.744 10.832C4.48 11.2587 5.34933 11.472 6.352 11.472ZM6.352 10.096C5.712 10.096 5.13067 9.952 4.608 9.664C4.08533 9.376 3.664 8.95467 3.344 8.4C3.03467 7.83467 2.88 7.16267 2.88 6.384C2.88 5.60533 3.03467 4.93867 3.344 4.384C3.664 3.82933 4.08533 3.408 4.608 3.12C5.13067 2.82133 5.712 2.672 6.352 2.672C7.14133 2.672 7.83467 2.88533 8.432 3.312C9.02933 3.728 9.42933 4.33067 9.632 5.12H8.4C8.25067 4.64 7.98933 4.27733 7.616 4.032C7.24267 3.776 6.816 3.648 6.336 3.648C5.71733 3.648 5.184 3.87733 4.736 4.336C4.288 4.79467 4.064 5.48267 4.064 6.4C4.064 7.30667 4.288 7.98933 4.736 8.448C5.184 8.90667 5.71733 9.136 6.336 9.136C7.38133 9.136 8.06933 8.65067 8.4 7.68H9.632C9.42933 8.42667 9.02933 9.01867 8.432 9.456C7.83467 9.88267 7.14133 10.096 6.352 10.096ZM17.9455 12V11.056C18.7028 10.4587 19.4175 9.856 20.0895 9.248C20.7722 8.62933 21.3748 8.02133 21.8975 7.424C22.4308 6.82667 22.8468 6.24 23.1455 5.664C23.4548 5.088 23.6095 4.53333 23.6095 4C23.6095 3.60533 23.5402 3.23733 23.4015 2.896C23.2735 2.55467 23.0602 2.28267 22.7615 2.08C22.4628 1.86667 22.0575 1.76 21.5455 1.76C21.0548 1.76 20.6442 1.872 20.3135 2.096C19.9828 2.30933 19.7322 2.59733 19.5615 2.96C19.4015 3.32267 19.3215 3.712 19.3215 4.128H18.0255C18.0255 3.392 18.1802 2.76267 18.4895 2.24C18.7988 1.70667 19.2202 1.30133 19.7535 1.024C20.2868 0.746666 20.8895 0.608 21.5615 0.608C22.5535 0.608 23.3642 0.890666 23.9935 1.456C24.6335 2.01067 24.9535 2.84267 24.9535 3.952C24.9535 4.61333 24.7882 5.26933 24.4575 5.92C24.1268 6.56 23.7055 7.184 23.1935 7.792C22.6815 8.38933 22.1322 8.94933 21.5455 9.472C20.9695 9.99467 20.4308 10.464 19.9295 10.88H25.3375V12H17.9455ZM31.4895 12.192C30.4975 12.192 29.6388 11.952 28.9135 11.472C28.1988 10.9813 27.6495 10.304 27.2655 9.44C26.8815 8.56533 26.6895 7.552 26.6895 6.4C26.6895 5.248 26.8815 4.24 27.2655 3.376C27.6495 2.50133 28.1988 1.824 28.9135 1.344C29.6388 0.853333 30.4975 0.608 31.4895 0.608C32.4815 0.608 33.3348 0.853333 34.0495 1.344C34.7642 1.824 35.3135 2.50133 35.6975 3.376C36.0815 4.24 36.2735 5.248 36.2735 6.4C36.2735 7.552 36.0815 8.56533 35.6975 9.44C35.3135 10.304 34.7642 10.9813 34.0495 11.472C33.3348 11.952 32.4815 12.192 31.4895 12.192ZM31.4895 11.008C32.1402 11.008 32.7215 10.8267 33.2335 10.464C33.7562 10.0907 34.1615 9.56267 34.4495 8.88C34.7482 8.18667 34.8975 7.36 34.8975 6.4C34.8975 5.44 34.7482 4.61867 34.4495 3.936C34.1615 3.25333 33.7562 2.73067 33.2335 2.368C32.7215 1.99467 32.1402 1.808 31.4895 1.808C30.8282 1.808 30.2415 1.99467 29.7295 2.368C29.2175 2.73067 28.8122 3.25333 28.5135 3.936C28.2148 4.61867 28.0655 5.44 28.0655 6.4C28.0655 7.36 28.2148 8.18667 28.5135 8.88C28.8122 9.56267 29.2175 10.0907 29.7295 10.464C30.2415 10.8267 30.8282 11.008 31.4895 11.008ZM37.883 12V11.056C38.6403 10.4587 39.355 9.856 40.027 9.248C40.7097 8.62933 41.3123 8.02133 41.835 7.424C42.3683 6.82667 42.7843 6.24 43.083 5.664C43.3923 5.088 43.547 4.53333 43.547 4C43.547 3.60533 43.4777 3.23733 43.339 2.896C43.211 2.55467 42.9977 2.28267 42.699 2.08C42.4003 1.86667 41.995 1.76 41.483 1.76C40.9923 1.76 40.5817 1.872 40.251 2.096C39.9203 2.30933 39.6697 2.59733 39.499 2.96C39.339 3.32267 39.259 3.712 39.259 4.128H37.963C37.963 3.392 38.1177 2.76267 38.427 2.24C38.7363 1.70667 39.1577 1.30133 39.691 1.024C40.2243 0.746666 40.827 0.608 41.499 0.608C42.491 0.608 43.3017 0.890666 43.931 1.456C44.571 2.01067 44.891 2.84267 44.891 3.952C44.891 4.61333 44.7257 5.26933 44.395 5.92C44.0643 6.56 43.643 7.184 43.131 7.792C42.619 8.38933 42.0697 8.94933 41.483 9.472C40.907 9.99467 40.3683 10.464 39.867 10.88H45.275V12H37.883ZM48.3193 12V2.304L46.5113 2.704V1.776L48.7673 0.799999H49.6793V12H48.3193ZM59.8458 12.192C59.0244 12.192 58.3098 12.0427 57.7018 11.744C57.0938 11.4453 56.6244 11.0293 56.2938 10.496C55.9631 9.96267 55.7978 9.344 55.7978 8.64H57.2057C57.2057 9.07733 57.3071 9.48267 57.5098 9.856C57.7124 10.2187 58.0058 10.512 58.3898 10.736C58.7844 10.9493 59.2698 11.056 59.8458 11.056C60.6031 11.056 61.1898 10.8747 61.6058 10.512C62.0218 10.1493 62.2298 9.696 62.2298 9.152C62.2298 8.704 62.1338 8.34667 61.9418 8.08C61.7498 7.80267 61.4884 7.57867 61.1578 7.408C60.8378 7.23733 60.4644 7.088 60.0378 6.96C59.6218 6.832 59.1844 6.688 58.7258 6.528C57.8618 6.22933 57.2218 5.86133 56.8058 5.424C56.3898 4.976 56.1818 4.39467 56.1818 3.68C56.1711 3.08267 56.3098 2.55467 56.5978 2.096C56.8858 1.62667 57.2911 1.264 57.8138 1.008C58.3471 0.741333 58.9764 0.608 59.7018 0.608C60.4164 0.608 61.0351 0.741333 61.5578 1.008C62.0911 1.27467 62.5018 1.64267 62.7898 2.112C63.0884 2.58133 63.2431 3.11467 63.2538 3.712H61.8458C61.8458 3.40267 61.7658 3.09867 61.6058 2.8C61.4458 2.49067 61.2004 2.24 60.8698 2.048C60.5498 1.856 60.1444 1.76 59.6538 1.76C59.0458 1.74933 58.5444 1.904 58.1498 2.224C57.7658 2.544 57.5738 2.98667 57.5738 3.552C57.5738 4.032 57.7071 4.4 57.9738 4.656C58.2511 4.912 58.6351 5.12533 59.1258 5.296C59.6164 5.456 60.1818 5.64267 60.8218 5.856C61.3551 6.048 61.8351 6.272 62.2618 6.528C62.6884 6.784 63.0191 7.11467 63.2538 7.52C63.4991 7.92533 63.6218 8.44267 63.6218 9.072C63.6218 9.60533 63.4831 10.112 63.2058 10.592C62.9284 11.0613 62.5071 11.4453 61.9418 11.744C61.3871 12.0427 60.6884 12.192 59.8458 12.192ZM65.4478 12V0.48H66.7918V5.424C67.0584 4.93333 67.4371 4.55467 67.9278 4.288C68.4184 4.01067 68.9518 3.872 69.5278 3.872C70.4451 3.872 71.1811 4.16 71.7358 4.736C72.2904 5.30133 72.5677 6.176 72.5677 7.36V12H71.2398V7.504C71.2398 5.85067 70.5731 5.024 69.2398 5.024C68.5464 5.024 67.9651 5.27467 67.4958 5.776C67.0264 6.26667 66.7918 6.97067 66.7918 7.888V12H65.4478ZM78.172 12.192C77.4147 12.192 76.7427 12.0213 76.156 11.68C75.5693 11.328 75.1053 10.8427 74.764 10.224C74.4333 9.60533 74.268 8.87467 74.268 8.032C74.268 7.2 74.4333 6.47467 74.764 5.856C75.0947 5.22667 75.5533 4.74133 76.14 4.4C76.7373 4.048 77.4253 3.872 78.204 3.872C78.972 3.872 79.6333 4.048 80.188 4.4C80.7533 4.74133 81.1853 5.19467 81.484 5.76C81.7827 6.32533 81.932 6.93333 81.932 7.584C81.932 7.70133 81.9267 7.81867 81.916 7.936C81.916 8.05333 81.916 8.18667 81.916 8.336H75.596C75.628 8.944 75.7667 9.45067 76.012 9.856C76.268 10.2507 76.5827 10.5493 76.956 10.752C77.34 10.9547 77.7453 11.056 78.172 11.056C78.7267 11.056 79.1907 10.928 79.564 10.672C79.9373 10.416 80.2093 10.0693 80.38 9.632H81.708C81.4947 10.368 81.084 10.9813 80.476 11.472C79.8787 11.952 79.1107 12.192 78.172 12.192ZM78.172 5.008C77.532 5.008 76.9613 5.20533 76.46 5.6C75.9693 5.984 75.6867 6.54933 75.612 7.296H80.604C80.572 6.58133 80.3267 6.02133 79.868 5.616C79.4093 5.21067 78.844 5.008 78.172 5.008ZM83.7134 12V0.48H85.0574V12H83.7134ZM87.2603 12V0.48H88.6043V12H87.2603ZM91.6711 15.52L93.6391 11.232H93.1751L90.0231 4.064H91.4791L94.1031 10.24L96.8871 4.064H98.2791L93.0791 15.52H91.6711ZM99.0211 12.08C98.7545 12.08 98.5305 11.9947 98.3491 11.824C98.1785 11.6427 98.0931 11.424 98.0931 11.168C98.0931 10.912 98.1785 10.6987 98.3491 10.528C98.5305 10.3467 98.7545 10.256 99.0211 10.256C99.2771 10.256 99.4905 10.3467 99.6611 10.528C99.8425 10.6987 99.9331 10.912 99.9331 11.168C99.9331 11.424 99.8425 11.6427 99.6611 11.824C99.4905 11.9947 99.2771 12.08 99.0211 12.08ZM207.072 12.192C206.411 12.192 205.861 12.08 205.424 11.856C204.987 11.632 204.661 11.3333 204.448 10.96C204.235 10.5867 204.128 10.1813 204.128 9.744C204.128 8.93333 204.437 8.30933 205.056 7.872C205.675 7.43467 206.517 7.216 207.584 7.216H209.728V7.12C209.728 6.42667 209.547 5.904 209.184 5.552C208.821 5.18933 208.336 5.008 207.728 5.008C207.205 5.008 206.752 5.14133 206.368 5.408C205.995 5.664 205.76 6.04267 205.664 6.544H204.288C204.341 5.968 204.533 5.48267 204.864 5.088C205.205 4.69333 205.627 4.39467 206.128 4.192C206.629 3.97867 207.163 3.872 207.728 3.872C208.837 3.872 209.669 4.17067 210.224 4.768C210.789 5.35467 211.072 6.13867 211.072 7.12V12H209.872L209.792 10.576C209.568 11.024 209.237 11.408 208.8 11.728C208.373 12.0373 207.797 12.192 207.072 12.192ZM207.28 11.056C207.792 11.056 208.229 10.9227 208.592 10.656C208.965 10.3893 209.248 10.0427 209.44 9.616C209.632 9.18933 209.728 8.74133 209.728 8.272V8.256H207.696C206.907 8.256 206.347 8.39467 206.016 8.672C205.696 8.93867 205.536 9.27467 205.536 9.68C205.536 10.096 205.685 10.432 205.984 10.688C206.293 10.9333 206.725 11.056 207.28 11.056ZM213.088 12V4.064H214.304L214.384 5.488C214.64 4.98667 215.008 4.592 215.488 4.304C215.968 4.016 216.512 3.872 217.12 3.872C218.059 3.872 218.806 4.16 219.36 4.736C219.926 5.30133 220.208 6.176 220.208 7.36V12H218.864V7.504C218.864 5.85067 218.182 5.024 216.816 5.024C216.134 5.024 215.563 5.27467 215.104 5.776C214.656 6.26667 214.432 6.97067 214.432 7.888V12H213.088ZM225.845 12.192C225.055 12.192 224.362 12.0107 223.765 11.648C223.178 11.2853 222.719 10.7893 222.389 10.16C222.069 9.53067 221.909 8.816 221.909 8.016C221.909 7.216 222.074 6.50667 222.405 5.888C222.735 5.25867 223.194 4.768 223.781 4.416C224.367 4.05333 225.061 3.872 225.861 3.872C226.511 3.872 227.087 4.00533 227.589 4.272C228.09 4.53867 228.479 4.912 228.757 5.392V0.48H230.101V12H228.885L228.757 10.688C228.501 11.072 228.133 11.4187 227.653 11.728C227.173 12.0373 226.57 12.192 225.845 12.192ZM225.989 11.024C226.522 11.024 226.991 10.9013 227.397 10.656C227.813 10.4 228.133 10.048 228.357 9.6C228.591 9.152 228.709 8.62933 228.709 8.032C228.709 7.43467 228.591 6.912 228.357 6.464C228.133 6.016 227.813 5.66933 227.397 5.424C226.991 5.168 226.522 5.04 225.989 5.04C225.466 5.04 224.997 5.168 224.581 5.424C224.175 5.66933 223.855 6.016 223.621 6.464C223.397 6.912 223.285 7.43467 223.285 8.032C223.285 8.62933 223.397 9.152 223.621 9.6C223.855 10.048 224.175 10.4 224.581 10.656C224.997 10.9013 225.466 11.024 225.989 11.024Z" fill="black"/>
<path d="M108.621 12V1.904H105.277V0.799999H113.309V1.904H109.965V12H108.621ZM117 12.192C116.243 12.192 115.571 12.0213 114.984 11.68C114.397 11.328 113.933 10.8427 113.592 10.224C113.261 9.60533 113.096 8.87467 113.096 8.032C113.096 7.2 113.261 6.47467 113.592 5.856C113.923 5.22667 114.381 4.74133 114.968 4.4C115.565 4.048 116.253 3.872 117.032 3.872C117.8 3.872 118.461 4.048 119.016 4.4C119.581 4.74133 120.013 5.19467 120.312 5.76C120.611 6.32533 120.76 6.93333 120.76 7.584C120.76 7.70133 120.755 7.81867 120.744 7.936C120.744 8.05333 120.744 8.18667 120.744 8.336H114.424C114.456 8.944 114.595 9.45067 114.84 9.856C115.096 10.2507 115.411 10.5493 115.784 10.752C116.168 10.9547 116.573 11.056 117 11.056C117.555 11.056 118.019 10.928 118.392 10.672C118.765 10.416 119.037 10.0693 119.208 9.632H120.536C120.323 10.368 119.912 10.9813 119.304 11.472C118.707 11.952 117.939 12.192 117 12.192ZM117 5.008C116.36 5.008 115.789 5.20533 115.288 5.6C114.797 5.984 114.515 6.54933 114.44 7.296H119.432C119.4 6.58133 119.155 6.02133 118.696 5.616C118.237 5.21067 117.672 5.008 117 5.008ZM122.542 12V4.064H123.758L123.87 5.584C124.115 5.06133 124.488 4.64533 124.99 4.336C125.491 4.02667 126.11 3.872 126.846 3.872V5.28H126.478C126.008 5.28 125.576 5.36533 125.182 5.536C124.787 5.696 124.472 5.97333 124.238 6.368C124.003 6.76267 123.886 7.30667 123.886 8V12H122.542ZM128.354 12V4.064H129.57L129.666 5.216C129.922 4.78933 130.263 4.45867 130.69 4.224C131.117 3.98933 131.597 3.872 132.13 3.872C132.759 3.872 133.298 4 133.746 4.256C134.205 4.512 134.557 4.90133 134.802 5.424C135.079 4.944 135.458 4.56533 135.938 4.288C136.429 4.01067 136.957 3.872 137.522 3.872C138.471 3.872 139.229 4.16 139.794 4.736C140.359 5.30133 140.642 6.176 140.642 7.36V12H139.314V7.504C139.314 6.68267 139.149 6.064 138.818 5.648C138.487 5.232 138.013 5.024 137.394 5.024C136.754 5.024 136.221 5.27467 135.794 5.776C135.378 6.26667 135.17 6.97067 135.17 7.888V12H133.826V7.504C133.826 6.68267 133.661 6.064 133.33 5.648C132.999 5.232 132.525 5.024 131.906 5.024C131.277 5.024 130.749 5.27467 130.322 5.776C129.906 6.26667 129.698 6.97067 129.698 7.888V12H128.354ZM145.707 12.192C144.757 12.192 143.968 11.952 143.339 11.472C142.709 10.992 142.341 10.3413 142.235 9.52H143.611C143.696 9.936 143.915 10.2987 144.267 10.608C144.629 10.9067 145.115 11.056 145.723 11.056C146.288 11.056 146.704 10.9387 146.971 10.704C147.237 10.4587 147.371 10.1707 147.371 9.84C147.371 9.36 147.195 9.04 146.843 8.88C146.501 8.72 146.016 8.576 145.387 8.448C144.96 8.36267 144.533 8.24 144.107 8.08C143.68 7.92 143.323 7.696 143.035 7.408C142.747 7.10933 142.603 6.72 142.603 6.24C142.603 5.54667 142.859 4.98133 143.371 4.544C143.893 4.096 144.597 3.872 145.483 3.872C146.325 3.872 147.013 4.08533 147.547 4.512C148.091 4.928 148.405 5.52533 148.491 6.304H147.163C147.109 5.89867 146.933 5.584 146.635 5.36C146.347 5.12533 145.957 5.008 145.467 5.008C144.987 5.008 144.613 5.10933 144.347 5.312C144.091 5.51467 143.963 5.78133 143.963 6.112C143.963 6.432 144.128 6.68267 144.459 6.864C144.8 7.04533 145.259 7.2 145.835 7.328C146.325 7.43467 146.789 7.568 147.227 7.728C147.675 7.87733 148.037 8.10667 148.315 8.416C148.603 8.71467 148.747 9.152 148.747 9.728C148.757 10.4427 148.485 11.0347 147.931 11.504C147.387 11.9627 146.645 12.192 145.707 12.192ZM158.517 12.192C157.77 12.192 157.098 12.0213 156.501 11.68C155.904 11.3387 155.429 10.8587 155.077 10.24C154.736 9.61067 154.565 8.87467 154.565 8.032C154.565 7.18933 154.741 6.45867 155.093 5.84C155.445 5.21067 155.92 4.72533 156.517 4.384C157.125 4.04267 157.802 3.872 158.549 3.872C159.296 3.872 159.968 4.04267 160.565 4.384C161.162 4.72533 161.632 5.21067 161.973 5.84C162.325 6.45867 162.501 7.18933 162.501 8.032C162.501 8.87467 162.325 9.61067 161.973 10.24C161.621 10.8587 161.141 11.3387 160.533 11.68C159.936 12.0213 159.264 12.192 158.517 12.192ZM158.517 11.04C158.976 11.04 159.402 10.928 159.797 10.704C160.192 10.48 160.512 10.144 160.757 9.696C161.002 9.248 161.125 8.69333 161.125 8.032C161.125 7.37067 161.002 6.816 160.757 6.368C160.522 5.92 160.208 5.584 159.813 5.36C159.418 5.136 158.997 5.024 158.549 5.024C158.09 5.024 157.664 5.136 157.269 5.36C156.874 5.584 156.554 5.92 156.309 6.368C156.064 6.816 155.941 7.37067 155.941 8.032C155.941 8.69333 156.064 9.248 156.309 9.696C156.554 10.144 156.869 10.48 157.253 10.704C157.648 10.928 158.069 11.04 158.517 11.04ZM164.802 12V5.2H163.602V4.064H164.802V2.688C164.802 1.92 164.994 1.36 165.378 1.008C165.762 0.656 166.322 0.48 167.058 0.48H167.858V1.632H167.266C166.86 1.632 166.572 1.71733 166.402 1.888C166.231 2.048 166.146 2.32533 166.146 2.72V4.064H168.098V5.2H166.146V12H164.802ZM176.828 12.192C175.889 12.192 175.143 11.9093 174.588 11.344C174.033 10.768 173.756 9.888 173.756 8.704V4.064H175.1V8.56C175.1 10.2133 175.777 11.04 177.132 11.04C177.825 11.04 178.396 10.7947 178.844 10.304C179.303 9.80267 179.532 9.09333 179.532 8.176V4.064H180.876V12H179.66L179.564 10.576C179.319 11.0773 178.951 11.472 178.46 11.76C177.98 12.048 177.436 12.192 176.828 12.192ZM186.128 12.192C185.179 12.192 184.39 11.952 183.76 11.472C183.131 10.992 182.763 10.3413 182.656 9.52H184.032C184.118 9.936 184.336 10.2987 184.688 10.608C185.051 10.9067 185.536 11.056 186.144 11.056C186.71 11.056 187.126 10.9387 187.392 10.704C187.659 10.4587 187.792 10.1707 187.792 9.84C187.792 9.36 187.616 9.04 187.264 8.88C186.923 8.72 186.438 8.576 185.808 8.448C185.382 8.36267 184.955 8.24 184.528 8.08C184.102 7.92 183.744 7.696 183.456 7.408C183.168 7.10933 183.024 6.72 183.024 6.24C183.024 5.54667 183.28 4.98133 183.792 4.544C184.315 4.096 185.019 3.872 185.904 3.872C186.747 3.872 187.435 4.08533 187.968 4.512C188.512 4.928 188.827 5.52533 188.912 6.304H187.584C187.531 5.89867 187.355 5.584 187.056 5.36C186.768 5.12533 186.379 5.008 185.888 5.008C185.408 5.008 185.035 5.10933 184.768 5.312C184.512 5.51467 184.384 5.78133 184.384 6.112C184.384 6.432 184.55 6.68267 184.88 6.864C185.222 7.04533 185.68 7.2 186.256 7.328C186.747 7.43467 187.211 7.568 187.648 7.728C188.096 7.87733 188.459 8.10667 188.736 8.416C189.024 8.71467 189.168 9.152 189.168 9.728C189.179 10.4427 188.907 11.0347 188.352 11.504C187.808 11.9627 187.067 12.192 186.128 12.192ZM194.656 12.192C193.899 12.192 193.227 12.0213 192.64 11.68C192.054 11.328 191.59 10.8427 191.248 10.224C190.918 9.60533 190.752 8.87467 190.752 8.032C190.752 7.2 190.918 6.47467 191.248 5.856C191.579 5.22667 192.038 4.74133 192.624 4.4C193.222 4.048 193.91 3.872 194.688 3.872C195.456 3.872 196.118 4.048 196.672 4.4C197.238 4.74133 197.67 5.19467 197.968 5.76C198.267 6.32533 198.416 6.93333 198.416 7.584C198.416 7.70133 198.411 7.81867 198.4 7.936C198.4 8.05333 198.4 8.18667 198.4 8.336H192.08C192.112 8.944 192.251 9.45067 192.496 9.856C192.752 10.2507 193.067 10.5493 193.44 10.752C193.824 10.9547 194.23 11.056 194.656 11.056C195.211 11.056 195.675 10.928 196.048 10.672C196.422 10.416 196.694 10.0693 196.864 9.632H198.192C197.979 10.368 197.568 10.9813 196.96 11.472C196.363 11.952 195.595 12.192 194.656 12.192ZM194.656 5.008C194.016 5.008 193.446 5.20533 192.944 5.6C192.454 5.984 192.171 6.54933 192.096 7.296H197.088C197.056 6.58133 196.811 6.02133 196.352 5.616C195.894 5.21067 195.328 5.008 194.656 5.008ZM236.526 15.52V4.064H237.742L237.87 5.376C238.126 4.992 238.489 4.64533 238.958 4.336C239.438 4.02667 240.046 3.872 240.782 3.872C241.571 3.872 242.259 4.05333 242.846 4.416C243.433 4.77867 243.886 5.27467 244.206 5.904C244.537 6.53333 244.702 7.248 244.702 8.048C244.702 8.848 244.537 9.56267 244.206 10.192C243.886 10.8107 243.427 11.3013 242.83 11.664C242.243 12.016 241.555 12.192 240.766 12.192C240.115 12.192 239.534 12.0587 239.022 11.792C238.521 11.5253 238.137 11.152 237.87 10.672V15.52H236.526ZM240.622 11.024C241.155 11.024 241.625 10.9013 242.03 10.656C242.435 10.4 242.755 10.048 242.99 9.6C243.225 9.152 243.342 8.62933 243.342 8.032C243.342 7.43467 243.225 6.912 242.99 6.464C242.755 6.016 242.435 5.66933 242.03 5.424C241.625 5.168 241.155 5.04 240.622 5.04C240.089 5.04 239.619 5.168 239.214 5.424C238.809 5.66933 238.489 6.016 238.254 6.464C238.019 6.912 237.902 7.43467 237.902 8.032C237.902 8.62933 238.019 9.152 238.254 9.6C238.489 10.048 238.809 10.4 239.214 10.656C239.619 10.9013 240.089 11.024 240.622 11.024ZM246.573 12V4.064H247.789L247.901 5.584C248.146 5.06133 248.519 4.64533 249.021 4.336C249.522 4.02667 250.141 3.872 250.877 3.872V5.28H250.509C250.039 5.28 249.607 5.36533 249.213 5.536C248.818 5.696 248.503 5.97333 248.269 6.368C248.034 6.76267 247.917 7.30667 247.917 8V12H246.573ZM253.201 2.304C252.935 2.304 252.711 2.21867 252.529 2.048C252.359 1.86667 252.273 1.64267 252.273 1.376C252.273 1.12 252.359 0.906666 252.529 0.735999C252.711 0.565333 252.935 0.48 253.201 0.48C253.457 0.48 253.676 0.565333 253.857 0.735999C254.039 0.906666 254.129 1.12 254.129 1.376C254.129 1.64267 254.039 1.86667 253.857 2.048C253.676 2.21867 253.457 2.304 253.201 2.304ZM252.529 12V4.064H253.873V12H252.529ZM258.501 12L255.493 4.064H256.901L259.285 10.704L261.685 4.064H263.061L260.053 12H258.501ZM266.791 12.192C266.13 12.192 265.58 12.08 265.143 11.856C264.706 11.632 264.38 11.3333 264.167 10.96C263.954 10.5867 263.847 10.1813 263.847 9.744C263.847 8.93333 264.156 8.30933 264.775 7.872C265.394 7.43467 266.236 7.216 267.303 7.216H269.447V7.12C269.447 6.42667 269.266 5.904 268.903 5.552C268.54 5.18933 268.055 5.008 267.447 5.008C266.924 5.008 266.471 5.14133 266.087 5.408C265.714 5.664 265.479 6.04267 265.383 6.544H264.007C264.06 5.968 264.252 5.48267 264.583 5.088C264.924 4.69333 265.346 4.39467 265.847 4.192C266.348 3.97867 266.882 3.872 267.447 3.872C268.556 3.872 269.388 4.17067 269.943 4.768C270.508 5.35467 270.791 6.13867 270.791 7.12V12H269.591L269.511 10.576C269.287 11.024 268.956 11.408 268.519 11.728C268.092 12.0373 267.516 12.192 266.791 12.192ZM266.999 11.056C267.511 11.056 267.948 10.9227 268.311 10.656C268.684 10.3893 268.967 10.0427 269.159 9.616C269.351 9.18933 269.447 8.74133 269.447 8.272V8.256H267.415C266.626 8.256 266.066 8.39467 265.735 8.672C265.415 8.93867 265.255 9.27467 265.255 9.68C265.255 10.096 265.404 10.432 265.703 10.688C266.012 10.9333 266.444 11.056 266.999 11.056ZM276.455 12.192C275.698 12.192 275.015 12.0213 274.407 11.68C273.81 11.328 273.335 10.8427 272.983 10.224C272.642 9.59467 272.471 8.864 272.471 8.032C272.471 7.2 272.642 6.47467 272.983 5.856C273.335 5.22667 273.81 4.74133 274.407 4.4C275.015 4.048 275.698 3.872 276.455 3.872C277.394 3.872 278.183 4.11733 278.823 4.608C279.474 5.09867 279.884 5.75467 280.055 6.576H278.679C278.572 6.08533 278.311 5.70667 277.895 5.44C277.479 5.16267 276.994 5.024 276.439 5.024C275.991 5.024 275.57 5.136 275.175 5.36C274.78 5.584 274.46 5.92 274.215 6.368C273.97 6.816 273.847 7.37067 273.847 8.032C273.847 8.69333 273.97 9.248 274.215 9.696C274.46 10.144 274.78 10.4853 275.175 10.72C275.57 10.944 275.991 11.056 276.439 11.056C276.994 11.056 277.479 10.9227 277.895 10.656C278.311 10.3787 278.572 9.98933 278.679 9.488H280.055C279.895 10.288 279.49 10.9387 278.839 11.44C278.188 11.9413 277.394 12.192 276.455 12.192ZM282.796 15.52L284.764 11.232H284.3L281.148 4.064H282.604L285.228 10.24L288.012 4.064H289.404L284.204 15.52H282.796ZM295.057 15.52V4.064H296.273L296.401 5.376C296.657 4.992 297.02 4.64533 297.489 4.336C297.969 4.02667 298.577 3.872 299.313 3.872C300.102 3.872 300.79 4.05333 301.377 4.416C301.964 4.77867 302.417 5.27467 302.737 5.904C303.068 6.53333 303.233 7.248 303.233 8.048C303.233 8.848 303.068 9.56267 302.737 10.192C302.417 10.8107 301.958 11.3013 301.361 11.664C300.774 12.016 300.086 12.192 299.297 12.192C298.646 12.192 298.065 12.0587 297.553 11.792C297.052 11.5253 296.668 11.152 296.401 10.672V15.52H295.057ZM299.153 11.024C299.686 11.024 300.156 10.9013 300.561 10.656C300.966 10.4 301.286 10.048 301.521 9.6C301.756 9.152 301.873 8.62933 301.873 8.032C301.873 7.43467 301.756 6.912 301.521 6.464C301.286 6.016 300.966 5.66933 300.561 5.424C300.156 5.168 299.686 5.04 299.153 5.04C298.62 5.04 298.15 5.168 297.745 5.424C297.34 5.66933 297.02 6.016 296.785 6.464C296.55 6.912 296.433 7.43467 296.433 8.032C296.433 8.62933 296.55 9.152 296.785 9.6C297.02 10.048 297.34 10.4 297.745 10.656C298.15 10.9013 298.62 11.024 299.153 11.024ZM308.72 12.192C307.973 12.192 307.301 12.0213 306.704 11.68C306.107 11.3387 305.632 10.8587 305.28 10.24C304.939 9.61067 304.768 8.87467 304.768 8.032C304.768 7.18933 304.944 6.45867 305.296 5.84C305.648 5.21067 306.123 4.72533 306.72 4.384C307.328 4.04267 308.005 3.872 308.752 3.872C309.499 3.872 310.171 4.04267 310.768 4.384C311.365 4.72533 311.835 5.21067 312.176 5.84C312.528 6.45867 312.704 7.18933 312.704 8.032C312.704 8.87467 312.528 9.61067 312.176 10.24C311.824 10.8587 311.344 11.3387 310.736 11.68C310.139 12.0213 309.467 12.192 308.72 12.192ZM308.72 11.04C309.179 11.04 309.605 10.928 310 10.704C310.395 10.48 310.715 10.144 310.96 9.696C311.205 9.248 311.328 8.69333 311.328 8.032C311.328 7.37067 311.205 6.816 310.96 6.368C310.725 5.92 310.411 5.584 310.016 5.36C309.621 5.136 309.2 5.024 308.752 5.024C308.293 5.024 307.867 5.136 307.472 5.36C307.077 5.584 306.757 5.92 306.512 6.368C306.267 6.816 306.144 7.37067 306.144 8.032C306.144 8.69333 306.267 9.248 306.512 9.696C306.757 10.144 307.072 10.48 307.456 10.704C307.851 10.928 308.272 11.04 308.72 11.04ZM314.573 12V0.48H315.917V12H314.573ZM318.936 2.304C318.669 2.304 318.445 2.21867 318.264 2.048C318.093 1.86667 318.008 1.64267 318.008 1.376C318.008 1.12 318.093 0.906666 318.264 0.735999C318.445 0.565333 318.669 0.48 318.936 0.48C319.192 0.48 319.41 0.565333 319.592 0.735999C319.773 0.906666 319.864 1.12 319.864 1.376C319.864 1.64267 319.773 1.86667 319.592 2.048C319.41 2.21867 319.192 2.304 318.936 2.304ZM318.264 12V4.064H319.608V12H318.264ZM325.596 12.192C324.838 12.192 324.156 12.0213 323.548 11.68C322.95 11.328 322.476 10.8427 322.124 10.224C321.782 9.59467 321.612 8.864 321.612 8.032C321.612 7.2 321.782 6.47467 322.124 5.856C322.476 5.22667 322.95 4.74133 323.548 4.4C324.156 4.048 324.838 3.872 325.596 3.872C326.534 3.872 327.324 4.11733 327.964 4.608C328.614 5.09867 329.025 5.75467 329.196 6.576H327.82C327.713 6.08533 327.452 5.70667 327.036 5.44C326.62 5.16267 326.134 5.024 325.58 5.024C325.132 5.024 324.71 5.136 324.316 5.36C323.921 5.584 323.601 5.92 323.356 6.368C323.11 6.816 322.988 7.37067 322.988 8.032C322.988 8.69333 323.11 9.248 323.356 9.696C323.601 10.144 323.921 10.4853 324.316 10.72C324.71 10.944 325.132 11.056 325.58 11.056C326.134 11.056 326.62 10.9227 327.036 10.656C327.452 10.3787 327.713 9.98933 327.82 9.488H329.196C329.036 10.288 328.63 10.9387 327.98 11.44C327.329 11.9413 326.534 12.192 325.596 12.192ZM331.937 15.52L333.905 11.232H333.441L330.289 4.064H331.745L334.369 10.24L337.153 4.064H338.545L333.345 15.52H331.937ZM339.287 12.08C339.02 12.08 338.796 11.9947 338.615 11.824C338.444 11.6427 338.359 11.424 338.359 11.168C338.359 10.912 338.444 10.6987 338.615 10.528C338.796 10.3467 339.02 10.256 339.287 10.256C339.543 10.256 339.756 10.3467 339.927 10.528C340.108 10.6987 340.199 10.912 340.199 11.168C340.199 11.424 340.108 11.6427 339.927 11.824C339.756 11.9947 339.543 12.08 339.287 12.08Z" fill="#707070"/>
</svg>
