<svg width="111" height="10" viewBox="0 0 111 10" fill="none" xmlns="http://www.w3.org/2000/svg">
<path d="M3.564 9.144C2.948 9.144 2.412 9.032 1.956 8.808C1.5 8.584 1.148 8.272 0.9 7.872C0.652 7.472 0.528 7.008 0.528 6.48H1.584C1.584 6.808 1.66 7.112 1.812 7.392C1.964 7.664 2.184 7.884 2.472 8.052C2.768 8.212 3.132 8.292 3.564 8.292C4.132 8.292 4.572 8.156 4.884 7.884C5.196 7.612 5.352 7.272 5.352 6.864C5.352 6.528 5.28 6.26 5.136 6.06C4.992 5.852 4.796 5.684 4.548 5.556C4.308 5.428 4.028 5.316 3.708 5.22C3.396 5.124 3.068 5.016 2.724 4.896C2.076 4.672 1.596 4.396 1.284 4.068C0.972 3.732 0.816 3.296 0.816 2.76C0.808 2.312 0.912 1.916 1.128 1.572C1.344 1.22 1.648 0.947999 2.04 0.756C2.44 0.556 2.912 0.456 3.456 0.456C3.992 0.456 4.456 0.556 4.848 0.756C5.248 0.955999 5.556 1.232 5.772 1.584C5.996 1.936 6.112 2.336 6.12 2.784H5.064C5.064 2.552 5.004 2.324 4.884 2.1C4.764 1.868 4.58 1.68 4.332 1.536C4.092 1.392 3.788 1.32 3.42 1.32C2.964 1.312 2.588 1.428 2.292 1.668C2.004 1.908 1.86 2.24 1.86 2.664C1.86 3.024 1.96 3.3 2.16 3.492C2.368 3.684 2.656 3.844 3.024 3.972C3.392 4.092 3.816 4.232 4.296 4.392C4.696 4.536 5.056 4.704 5.376 4.896C5.696 5.088 5.944 5.336 6.12 5.64C6.304 5.944 6.396 6.332 6.396 6.804C6.396 7.204 6.292 7.584 6.084 7.944C5.876 8.296 5.56 8.584 5.136 8.808C4.72 9.032 4.196 9.144 3.564 9.144ZM7.8255 9V0.599999H13.0215V1.428H8.8335V4.356H12.6615V5.172H8.8335V8.172H13.0215V9H7.8255ZM14.5989 9V0.599999H15.6069V8.196H19.5189V9H14.5989ZM20.9036 9V0.599999H26.0996V1.428H21.9116V4.356H25.7396V5.172H21.9116V8.172H26.0996V9H20.9036ZM31.3611 9.144C30.5371 9.144 29.8251 8.964 29.2251 8.604C28.6331 8.236 28.1731 7.728 27.8451 7.08C27.5171 6.424 27.3531 5.664 27.3531 4.8C27.3531 3.944 27.5171 3.192 27.8451 2.544C28.1731 1.888 28.6331 1.376 29.2251 1.008C29.8251 0.64 30.5371 0.456 31.3611 0.456C32.3211 0.456 33.1011 0.688 33.7011 1.152C34.3091 1.608 34.6971 2.248 34.8651 3.072H33.7491C33.6211 2.552 33.3571 2.136 32.9571 1.824C32.5651 1.504 32.0331 1.344 31.3611 1.344C30.7611 1.344 30.2371 1.484 29.7891 1.764C29.3411 2.036 28.9931 2.432 28.7451 2.952C28.5051 3.464 28.3851 4.08 28.3851 4.8C28.3851 5.52 28.5051 6.14 28.7451 6.66C28.9931 7.172 29.3411 7.568 29.7891 7.848C30.2371 8.12 30.7611 8.256 31.3611 8.256C32.0331 8.256 32.5651 8.104 32.9571 7.8C33.3571 7.488 33.6211 7.076 33.7491 6.564H34.8651C34.6971 7.372 34.3091 8.004 33.7011 8.46C33.1011 8.916 32.3211 9.144 31.3611 9.144ZM38.0826 9V1.428H35.5746V0.599999H41.5986V1.428H39.0906V9H38.0826ZM45.4772 9L48.5732 0.599999H49.6412L52.7252 9H51.6572L50.8892 6.84H47.3132L46.5332 9H45.4772ZM47.6132 6.024H50.5892L49.1012 1.872L47.6132 6.024ZM60.8337 9.144C60.0097 9.144 59.2977 8.964 58.6977 8.604C58.1057 8.236 57.6457 7.728 57.3177 7.08C56.9897 6.424 56.8257 5.664 56.8257 4.8C56.8257 3.944 56.9897 3.192 57.3177 2.544C57.6457 1.888 58.1057 1.376 58.6977 1.008C59.2977 0.64 60.0097 0.456 60.8337 0.456C61.7937 0.456 62.5737 0.688 63.1737 1.152C63.7817 1.608 64.1697 2.248 64.3377 3.072H63.2217C63.0937 2.552 62.8297 2.136 62.4297 1.824C62.0377 1.504 61.5057 1.344 60.8337 1.344C60.2337 1.344 59.7097 1.484 59.2617 1.764C58.8137 2.036 58.4657 2.432 58.2177 2.952C57.9777 3.464 57.8577 4.08 57.8577 4.8C57.8577 5.52 57.9777 6.14 58.2177 6.66C58.4657 7.172 58.8137 7.568 59.2617 7.848C59.7097 8.12 60.2337 8.256 60.8337 8.256C61.5057 8.256 62.0377 8.104 62.4297 7.8C62.8297 7.488 63.0937 7.076 63.2217 6.564H64.3377C64.1697 7.372 63.7817 8.004 63.1737 8.46C62.5737 8.916 61.7937 9.144 60.8337 9.144ZM69.6024 9.144C68.7784 9.144 68.0544 8.964 67.4304 8.604C66.8144 8.236 66.3304 7.724 65.9784 7.068C65.6344 6.412 65.4624 5.656 65.4624 4.8C65.4624 3.944 65.6344 3.192 65.9784 2.544C66.3304 1.888 66.8144 1.376 67.4304 1.008C68.0544 0.64 68.7784 0.456 69.6024 0.456C70.4344 0.456 71.1584 0.64 71.7744 1.008C72.3984 1.376 72.8824 1.888 73.2264 2.544C73.5704 3.192 73.7424 3.944 73.7424 4.8C73.7424 5.656 73.5704 6.412 73.2264 7.068C72.8824 7.724 72.3984 8.236 71.7744 8.604C71.1584 8.964 70.4344 9.144 69.6024 9.144ZM69.6024 8.256C70.2184 8.256 70.7584 8.12 71.2224 7.848C71.6944 7.568 72.0584 7.172 72.3144 6.66C72.5784 6.14 72.7104 5.52 72.7104 4.8C72.7104 4.08 72.5784 3.464 72.3144 2.952C72.0584 2.44 71.6944 2.048 71.2224 1.776C70.7584 1.496 70.2184 1.356 69.6024 1.356C68.9864 1.356 68.4424 1.496 67.9704 1.776C67.5064 2.048 67.1424 2.44 66.8784 2.952C66.6224 3.464 66.4944 4.08 66.4944 4.8C66.4944 5.52 66.6224 6.14 66.8784 6.66C67.1424 7.172 67.5064 7.568 67.9704 7.848C68.4424 8.12 68.9864 8.256 69.6024 8.256ZM78.2326 9.144C77.6566 9.144 77.1326 9.032 76.6606 8.808C76.1966 8.576 75.8246 8.22 75.5446 7.74C75.2646 7.26 75.1246 6.648 75.1246 5.904V0.599999H76.1326V5.916C76.1326 6.732 76.3286 7.324 76.7206 7.692C77.1126 8.06 77.6246 8.244 78.2566 8.244C78.8886 8.244 79.3966 8.06 79.7806 7.692C80.1646 7.324 80.3566 6.732 80.3566 5.916V0.599999H81.3646V5.904C81.3646 6.648 81.2246 7.26 80.9446 7.74C80.6646 8.22 80.2886 8.576 79.8166 8.808C79.3446 9.032 78.8166 9.144 78.2326 9.144ZM83.0716 9V0.599999H84.0796L88.5556 7.332V0.599999H89.5636V9H88.5556L84.0796 2.268V9H83.0716ZM93.313 9V1.428H90.805V0.599999H96.829V1.428H94.321V9H93.313ZM98.0599 9V0.599999H100.772C101.428 0.599999 101.964 0.707999 102.38 0.924C102.796 1.14 103.104 1.436 103.304 1.812C103.504 2.188 103.604 2.604 103.604 3.06C103.604 3.588 103.46 4.064 103.172 4.488C102.892 4.912 102.452 5.212 101.852 5.388L103.688 9H102.5L100.796 5.532H100.724H99.0679V9H98.0599ZM99.0679 4.74H100.7C101.348 4.74 101.82 4.584 102.116 4.272C102.412 3.96 102.56 3.56 102.56 3.072C102.56 2.576 102.412 2.184 102.116 1.896C101.828 1.6 101.352 1.452 100.688 1.452H99.0679V4.74ZM106.91 9V5.808L104.174 0.599999H105.314L107.414 4.848L109.514 0.599999H110.642L107.918 5.808V9H106.91Z" fill="#707070"/>
</svg>
