<svg width="243" height="43" viewBox="0 0 243 43" fill="none" xmlns="http://www.w3.org/2000/svg">
<path d="M4.752 12.192C3.93067 12.192 3.216 12.0427 2.608 11.744C2 11.4453 1.53067 11.0293 1.2 10.496C0.869333 9.96267 0.704 9.344 0.704 8.64H2.112C2.112 9.07733 2.21333 9.48267 2.416 9.856C2.61867 10.2187 2.912 10.512 3.296 10.736C3.69067 10.9493 4.176 11.056 4.752 11.056C5.50933 11.056 6.096 10.8747 6.512 10.512C6.928 10.1493 7.136 9.696 7.136 9.152C7.136 8.704 7.04 8.34667 6.848 8.08C6.656 7.80267 6.39467 7.57867 6.064 7.408C5.744 7.23733 5.37067 7.088 4.944 6.96C4.528 6.832 4.09067 6.688 3.632 6.528C2.768 6.22933 2.128 5.86133 1.712 5.424C1.296 4.976 1.088 4.39467 1.088 3.68C1.07733 3.08267 1.216 2.55467 1.504 2.096C1.792 1.62667 2.19733 1.264 2.72 1.008C3.25333 0.741333 3.88267 0.608 4.608 0.608C5.32267 0.608 5.94133 0.741333 6.464 1.008C6.99733 1.27467 7.408 1.64267 7.696 2.112C7.99467 2.58133 8.14933 3.11467 8.16 3.712H6.752C6.752 3.40267 6.672 3.09867 6.512 2.8C6.352 2.49067 6.10667 2.24 5.776 2.048C5.456 1.856 5.05067 1.76 4.56 1.76C3.952 1.74933 3.45067 1.904 3.056 2.224C2.672 2.544 2.48 2.98667 2.48 3.552C2.48 4.032 2.61333 4.4 2.88 4.656C3.15733 4.912 3.54133 5.12533 4.032 5.296C4.52267 5.456 5.088 5.64267 5.728 5.856C6.26133 6.048 6.74133 6.272 7.168 6.528C7.59467 6.784 7.92533 7.11467 8.16 7.52C8.40533 7.92533 8.528 8.44267 8.528 9.072C8.528 9.60533 8.38933 10.112 8.112 10.592C7.83467 11.0613 7.41333 11.4453 6.848 11.744C6.29333 12.0427 5.59467 12.192 4.752 12.192ZM10.354 12V0.48H11.698V5.424C11.9647 4.93333 12.3433 4.55467 12.834 4.288C13.3247 4.01067 13.858 3.872 14.434 3.872C15.3513 3.872 16.0873 4.16 16.642 4.736C17.1967 5.30133 17.474 6.176 17.474 7.36V12H16.146V7.504C16.146 5.85067 15.4793 5.024 14.146 5.024C13.4527 5.024 12.8713 5.27467 12.402 5.776C11.9327 6.26667 11.698 6.97067 11.698 7.888V12H10.354ZM20.3263 2.304C20.0596 2.304 19.8356 2.21867 19.6543 2.048C19.4836 1.86667 19.3983 1.64267 19.3983 1.376C19.3983 1.12 19.4836 0.906666 19.6543 0.735999C19.8356 0.565333 20.0596 0.48 20.3263 0.48C20.5823 0.48 20.8009 0.565333 20.9823 0.735999C21.1636 0.906666 21.2543 1.12 21.2543 1.376C21.2543 1.64267 21.1636 1.86667 20.9823 2.048C20.8009 2.21867 20.5823 2.304 20.3263 2.304ZM19.6543 12V4.064H20.9983V12H19.6543ZM23.3384 15.52V4.064H24.5544L24.6824 5.376C24.9384 4.992 25.301 4.64533 25.7704 4.336C26.2504 4.02667 26.8584 3.872 27.5944 3.872C28.3837 3.872 29.0717 4.05333 29.6584 4.416C30.245 4.77867 30.6984 5.27467 31.0184 5.904C31.349 6.53333 31.5144 7.248 31.5144 8.048C31.5144 8.848 31.349 9.56267 31.0184 10.192C30.6984 10.8107 30.2397 11.3013 29.6424 11.664C29.0557 12.016 28.3677 12.192 27.5784 12.192C26.9277 12.192 26.3464 12.0587 25.8344 11.792C25.333 11.5253 24.949 11.152 24.6824 10.672V15.52H23.3384ZM27.4344 11.024C27.9677 11.024 28.437 10.9013 28.8424 10.656C29.2477 10.4 29.5677 10.048 29.8024 9.6C30.037 9.152 30.1544 8.62933 30.1544 8.032C30.1544 7.43467 30.037 6.912 29.8024 6.464C29.5677 6.016 29.2477 5.66933 28.8424 5.424C28.437 5.168 27.9677 5.04 27.4344 5.04C26.901 5.04 26.4317 5.168 26.0264 5.424C25.621 5.66933 25.301 6.016 25.0664 6.464C24.8317 6.912 24.7144 7.43467 24.7144 8.032C24.7144 8.62933 24.8317 9.152 25.0664 9.6C25.301 10.048 25.621 10.4 26.0264 10.656C26.4317 10.9013 26.901 11.024 27.4344 11.024ZM33.3853 15.52V4.064H34.6013L34.7293 5.376C34.9853 4.992 35.3479 4.64533 35.8173 4.336C36.2973 4.02667 36.9053 3.872 37.6413 3.872C38.4306 3.872 39.1186 4.05333 39.7053 4.416C40.2919 4.77867 40.7453 5.27467 41.0653 5.904C41.3959 6.53333 41.5613 7.248 41.5613 8.048C41.5613 8.848 41.3959 9.56267 41.0653 10.192C40.7453 10.8107 40.2866 11.3013 39.6893 11.664C39.1026 12.016 38.4146 12.192 37.6253 12.192C36.9746 12.192 36.3933 12.0587 35.8813 11.792C35.3799 11.5253 34.9959 11.152 34.7293 10.672V15.52H33.3853ZM37.4813 11.024C38.0146 11.024 38.4839 10.9013 38.8893 10.656C39.2946 10.4 39.6146 10.048 39.8493 9.6C40.0839 9.152 40.2013 8.62933 40.2013 8.032C40.2013 7.43467 40.0839 6.912 39.8493 6.464C39.6146 6.016 39.2946 5.66933 38.8893 5.424C38.4839 5.168 38.0146 5.04 37.4813 5.04C36.9479 5.04 36.4786 5.168 36.0733 5.424C35.6679 5.66933 35.3479 6.016 35.1133 6.464C34.8786 6.912 34.7613 7.43467 34.7613 8.032C34.7613 8.62933 34.8786 9.152 35.1133 9.6C35.3479 10.048 35.6679 10.4 36.0733 10.656C36.4786 10.9013 36.9479 11.024 37.4813 11.024ZM44.2481 2.304C43.9815 2.304 43.7575 2.21867 43.5761 2.048C43.4055 1.86667 43.3201 1.64267 43.3201 1.376C43.3201 1.12 43.4055 0.906666 43.5761 0.735999C43.7575 0.565333 43.9815 0.48 44.2481 0.48C44.5041 0.48 44.7228 0.565333 44.9041 0.735999C45.0855 0.906666 45.1761 1.12 45.1761 1.376C45.1761 1.64267 45.0855 1.86667 44.9041 2.048C44.7228 2.21867 44.5041 2.304 44.2481 2.304ZM43.5761 12V4.064H44.9201V12H43.5761ZM47.2603 12V4.064H48.4763L48.5563 5.488C48.8123 4.98667 49.1803 4.592 49.6603 4.304C50.1403 4.016 50.6843 3.872 51.2923 3.872C52.2309 3.872 52.9776 4.16 53.5323 4.736C54.0976 5.30133 54.3802 6.176 54.3802 7.36V12H53.0363V7.504C53.0363 5.85067 52.3536 5.024 50.9883 5.024C50.3056 5.024 49.7349 5.27467 49.2763 5.776C48.8283 6.26667 48.6043 6.97067 48.6043 7.888V12H47.2603ZM59.5525 9.504C59.1045 9.504 58.6938 9.44533 58.3205 9.328L57.5205 10.08C57.6378 10.1653 57.7818 10.24 57.9525 10.304C58.1338 10.3573 58.3898 10.4107 58.7205 10.464C59.0512 10.5067 59.5152 10.5547 60.1125 10.608C61.1792 10.6827 61.9418 10.928 62.4005 11.344C62.8592 11.76 63.0885 12.304 63.0885 12.976C63.0885 13.4347 62.9605 13.872 62.7045 14.288C62.4592 14.704 62.0752 15.0453 61.5525 15.312C61.0405 15.5787 60.3792 15.712 59.5685 15.712C58.8538 15.712 58.2192 15.616 57.6645 15.424C57.1098 15.2427 56.6778 14.96 56.3685 14.576C56.0592 14.2027 55.9045 13.728 55.9045 13.152C55.9045 12.8533 55.9845 12.528 56.1445 12.176C56.3045 11.8347 56.6032 11.5093 57.0405 11.2C56.8058 11.104 56.6032 11.0027 56.4325 10.896C56.2725 10.7787 56.1232 10.6507 55.9845 10.512V10.144L57.3445 8.8C56.7152 8.26667 56.4005 7.56267 56.4005 6.688C56.4005 6.16533 56.5232 5.69067 56.7685 5.264C57.0138 4.83733 57.3712 4.50133 57.8405 4.256C58.3098 4 58.8805 3.872 59.5525 3.872C60.0112 3.872 60.4272 3.936 60.8005 4.064H63.7285V5.072L62.2405 5.136C62.5498 5.584 62.7045 6.10133 62.7045 6.688C62.7045 7.21067 62.5765 7.68533 62.3205 8.112C62.0752 8.53867 61.7178 8.88 61.2485 9.136C60.7898 9.38133 60.2245 9.504 59.5525 9.504ZM59.5525 8.4C60.1178 8.4 60.5658 8.256 60.8965 7.968C61.2378 7.66933 61.4085 7.24267 61.4085 6.688C61.4085 6.144 61.2378 5.728 60.8965 5.44C60.5658 5.14133 60.1178 4.992 59.5525 4.992C58.9765 4.992 58.5178 5.14133 58.1765 5.44C57.8458 5.728 57.6805 6.144 57.6805 6.688C57.6805 7.24267 57.8458 7.66933 58.1765 7.968C58.5178 8.256 58.9765 8.4 59.5525 8.4ZM57.2165 13.024C57.2165 13.5573 57.4405 13.952 57.8885 14.208C58.3365 14.4747 58.8965 14.608 59.5685 14.608C60.2298 14.608 60.7578 14.464 61.1525 14.176C61.5578 13.888 61.7605 13.504 61.7605 13.024C61.7605 12.6827 61.6218 12.384 61.3445 12.128C61.0672 11.8827 60.5552 11.7387 59.8085 11.696C59.2218 11.6533 58.7152 11.6 58.2885 11.536C57.8512 11.7707 57.5632 12.0213 57.4245 12.288C57.2858 12.5653 57.2165 12.8107 57.2165 13.024ZM73.127 12.192C72.3697 12.192 71.687 12.0213 71.079 11.68C70.4817 11.328 70.007 10.8427 69.655 10.224C69.3137 9.59467 69.143 8.864 69.143 8.032C69.143 7.2 69.3137 6.47467 69.655 5.856C70.007 5.22667 70.4817 4.74133 71.079 4.4C71.687 4.048 72.3697 3.872 73.127 3.872C74.0657 3.872 74.855 4.11733 75.495 4.608C76.1457 5.09867 76.5563 5.75467 76.727 6.576H75.351C75.2443 6.08533 74.983 5.70667 74.567 5.44C74.151 5.16267 73.6657 5.024 73.111 5.024C72.663 5.024 72.2417 5.136 71.847 5.36C71.4523 5.584 71.1323 5.92 70.887 6.368C70.6417 6.816 70.519 7.37067 70.519 8.032C70.519 8.69333 70.6417 9.248 70.887 9.696C71.1323 10.144 71.4523 10.4853 71.847 10.72C72.2417 10.944 72.663 11.056 73.111 11.056C73.6657 11.056 74.151 10.9227 74.567 10.656C74.983 10.3787 75.2443 9.98933 75.351 9.488H76.727C76.567 10.288 76.1617 10.9387 75.511 11.44C74.8603 11.9413 74.0657 12.192 73.127 12.192ZM82.22 12.192C81.4733 12.192 80.8013 12.0213 80.204 11.68C79.6067 11.3387 79.132 10.8587 78.78 10.24C78.4387 9.61067 78.268 8.87467 78.268 8.032C78.268 7.18933 78.444 6.45867 78.796 5.84C79.148 5.21067 79.6227 4.72533 80.22 4.384C80.828 4.04267 81.5053 3.872 82.252 3.872C82.9987 3.872 83.6707 4.04267 84.268 4.384C84.8653 4.72533 85.3347 5.21067 85.676 5.84C86.028 6.45867 86.204 7.18933 86.204 8.032C86.204 8.87467 86.028 9.61067 85.676 10.24C85.324 10.8587 84.844 11.3387 84.236 11.68C83.6387 12.0213 82.9667 12.192 82.22 12.192ZM82.22 11.04C82.6787 11.04 83.1053 10.928 83.5 10.704C83.8947 10.48 84.2147 10.144 84.46 9.696C84.7053 9.248 84.828 8.69333 84.828 8.032C84.828 7.37067 84.7053 6.816 84.46 6.368C84.2253 5.92 83.9107 5.584 83.516 5.36C83.1213 5.136 82.7 5.024 82.252 5.024C81.7933 5.024 81.3667 5.136 80.972 5.36C80.5773 5.584 80.2573 5.92 80.012 6.368C79.7667 6.816 79.644 7.37067 79.644 8.032C79.644 8.69333 79.7667 9.248 80.012 9.696C80.2573 10.144 80.572 10.48 80.956 10.704C81.3507 10.928 81.772 11.04 82.22 11.04ZM91.1128 12.192C90.1634 12.192 89.3741 11.952 88.7448 11.472C88.1154 10.992 87.7474 10.3413 87.6408 9.52H89.0168C89.1021 9.936 89.3208 10.2987 89.6728 10.608C90.0354 10.9067 90.5208 11.056 91.1288 11.056C91.6941 11.056 92.1101 10.9387 92.3768 10.704C92.6434 10.4587 92.7768 10.1707 92.7768 9.84C92.7768 9.36 92.6008 9.04 92.2488 8.88C91.9074 8.72 91.4221 8.576 90.7928 8.448C90.3661 8.36267 89.9394 8.24 89.5128 8.08C89.0861 7.92 88.7288 7.696 88.4408 7.408C88.1528 7.10933 88.0088 6.72 88.0088 6.24C88.0088 5.54667 88.2648 4.98133 88.7768 4.544C89.2994 4.096 90.0034 3.872 90.8888 3.872C91.7314 3.872 92.4194 4.08533 92.9528 4.512C93.4968 4.928 93.8114 5.52533 93.8968 6.304H92.5688C92.5154 5.89867 92.3394 5.584 92.0408 5.36C91.7528 5.12533 91.3634 5.008 90.8728 5.008C90.3928 5.008 90.0194 5.10933 89.7528 5.312C89.4968 5.51467 89.3688 5.78133 89.3688 6.112C89.3688 6.432 89.5341 6.68267 89.8648 6.864C90.2061 7.04533 90.6648 7.2 91.2408 7.328C91.7314 7.43467 92.1954 7.568 92.6328 7.728C93.0808 7.87733 93.4434 8.10667 93.7208 8.416C94.0088 8.71467 94.1528 9.152 94.1528 9.728C94.1634 10.4427 93.8914 11.0347 93.3368 11.504C92.7928 11.9627 92.0514 12.192 91.1128 12.192ZM98.8494 12C98.124 12 97.5534 11.824 97.1374 11.472C96.7214 11.12 96.5134 10.4853 96.5134 9.568V5.2H95.1374V4.064H96.5134L96.6894 2.16H97.8574V4.064H100.193V5.2H97.8574V9.568C97.8574 10.0693 97.9587 10.4107 98.1614 10.592C98.364 10.7627 98.7214 10.848 99.2334 10.848H100.065V12H98.8494ZM104.941 12.192C103.992 12.192 103.202 11.952 102.573 11.472C101.944 10.992 101.576 10.3413 101.469 9.52H102.845C102.93 9.936 103.149 10.2987 103.501 10.608C103.864 10.9067 104.349 11.056 104.957 11.056C105.522 11.056 105.938 10.9387 106.205 10.704C106.472 10.4587 106.605 10.1707 106.605 9.84C106.605 9.36 106.429 9.04 106.077 8.88C105.736 8.72 105.25 8.576 104.621 8.448C104.194 8.36267 103.768 8.24 103.341 8.08C102.914 7.92 102.557 7.696 102.269 7.408C101.981 7.10933 101.837 6.72 101.837 6.24C101.837 5.54667 102.093 4.98133 102.605 4.544C103.128 4.096 103.832 3.872 104.717 3.872C105.56 3.872 106.248 4.08533 106.781 4.512C107.325 4.928 107.64 5.52533 107.725 6.304H106.397C106.344 5.89867 106.168 5.584 105.869 5.36C105.581 5.12533 105.192 5.008 104.701 5.008C104.221 5.008 103.848 5.10933 103.581 5.312C103.325 5.51467 103.197 5.78133 103.197 6.112C103.197 6.432 103.362 6.68267 103.693 6.864C104.034 7.04533 104.493 7.2 105.069 7.328C105.56 7.43467 106.024 7.568 106.461 7.728C106.909 7.87733 107.272 8.10667 107.549 8.416C107.837 8.71467 107.981 9.152 107.981 9.728C107.992 10.4427 107.72 11.0347 107.165 11.504C106.621 11.9627 105.88 12.192 104.941 12.192ZM115.735 12L113.415 4.064H114.759L116.439 10.288L118.295 4.064H119.815L121.687 10.288L123.351 4.064H124.711L122.391 12H121.015L119.063 5.456L117.111 12H115.735ZM127.014 2.304C126.747 2.304 126.523 2.21867 126.342 2.048C126.171 1.86667 126.086 1.64267 126.086 1.376C126.086 1.12 126.171 0.906666 126.342 0.735999C126.523 0.565333 126.747 0.48 127.014 0.48C127.27 0.48 127.488 0.565333 127.67 0.735999C127.851 0.906666 127.942 1.12 127.942 1.376C127.942 1.64267 127.851 1.86667 127.67 2.048C127.488 2.21867 127.27 2.304 127.014 2.304ZM126.342 12V4.064H127.686V12H126.342ZM130.026 12V0.48H131.37V12H130.026ZM133.573 12V0.48H134.917V12H133.573ZM145.594 12.192C144.943 12.192 144.362 12.0587 143.85 11.792C143.349 11.5253 142.965 11.152 142.698 10.672L142.57 12H141.354V0.48H142.698V5.376C142.954 4.992 143.317 4.64533 143.786 4.336C144.266 4.02667 144.874 3.872 145.61 3.872C146.399 3.872 147.087 4.05333 147.674 4.416C148.261 4.77867 148.714 5.27467 149.034 5.904C149.365 6.53333 149.53 7.248 149.53 8.048C149.53 8.848 149.365 9.56267 149.034 10.192C148.714 10.8107 148.255 11.3013 147.658 11.664C147.071 12.016 146.383 12.192 145.594 12.192ZM145.45 11.024C145.983 11.024 146.453 10.9013 146.858 10.656C147.263 10.4 147.583 10.048 147.818 9.6C148.053 9.152 148.17 8.62933 148.17 8.032C148.17 7.43467 148.053 6.912 147.818 6.464C147.583 6.016 147.263 5.66933 146.858 5.424C146.453 5.168 145.983 5.04 145.45 5.04C144.917 5.04 144.447 5.168 144.042 5.424C143.637 5.66933 143.317 6.016 143.082 6.464C142.847 6.912 142.73 7.43467 142.73 8.032C142.73 8.62933 142.847 9.152 143.082 9.6C143.317 10.048 143.637 10.4 144.042 10.656C144.447 10.9013 144.917 11.024 145.45 11.024ZM154.969 12.192C154.212 12.192 153.54 12.0213 152.953 11.68C152.366 11.328 151.902 10.8427 151.561 10.224C151.23 9.60533 151.065 8.87467 151.065 8.032C151.065 7.2 151.23 6.47467 151.561 5.856C151.892 5.22667 152.35 4.74133 152.937 4.4C153.534 4.048 154.222 3.872 155.001 3.872C155.769 3.872 156.43 4.048 156.985 4.4C157.55 4.74133 157.982 5.19467 158.281 5.76C158.58 6.32533 158.729 6.93333 158.729 7.584C158.729 7.70133 158.724 7.81867 158.713 7.936C158.713 8.05333 158.713 8.18667 158.713 8.336H152.393C152.425 8.944 152.564 9.45067 152.809 9.856C153.065 10.2507 153.38 10.5493 153.753 10.752C154.137 10.9547 154.542 11.056 154.969 11.056C155.524 11.056 155.988 10.928 156.361 10.672C156.734 10.416 157.006 10.0693 157.177 9.632H158.505C158.292 10.368 157.881 10.9813 157.273 11.472C156.676 11.952 155.908 12.192 154.969 12.192ZM154.969 5.008C154.329 5.008 153.758 5.20533 153.257 5.6C152.766 5.984 152.484 6.54933 152.409 7.296H157.401C157.369 6.58133 157.124 6.02133 156.665 5.616C156.206 5.21067 155.641 5.008 154.969 5.008ZM168.393 12.192C167.635 12.192 166.953 12.0213 166.345 11.68C165.747 11.328 165.273 10.8427 164.921 10.224C164.579 9.59467 164.409 8.864 164.409 8.032C164.409 7.2 164.579 6.47467 164.921 5.856C165.273 5.22667 165.747 4.74133 166.345 4.4C166.953 4.048 167.635 3.872 168.393 3.872C169.331 3.872 170.121 4.11733 170.761 4.608C171.411 5.09867 171.822 5.75467 171.993 6.576H170.617C170.51 6.08533 170.249 5.70667 169.833 5.44C169.417 5.16267 168.931 5.024 168.377 5.024C167.929 5.024 167.507 5.136 167.113 5.36C166.718 5.584 166.398 5.92 166.153 6.368C165.907 6.816 165.785 7.37067 165.785 8.032C165.785 8.69333 165.907 9.248 166.153 9.696C166.398 10.144 166.718 10.4853 167.113 10.72C167.507 10.944 167.929 11.056 168.377 11.056C168.931 11.056 169.417 10.9227 169.833 10.656C170.249 10.3787 170.51 9.98933 170.617 9.488H171.993C171.833 10.288 171.427 10.9387 170.777 11.44C170.126 11.9413 169.331 12.192 168.393 12.192ZM176.51 12.192C175.848 12.192 175.299 12.08 174.862 11.856C174.424 11.632 174.099 11.3333 173.886 10.96C173.672 10.5867 173.566 10.1813 173.566 9.744C173.566 8.93333 173.875 8.30933 174.494 7.872C175.112 7.43467 175.955 7.216 177.022 7.216H179.166V7.12C179.166 6.42667 178.984 5.904 178.622 5.552C178.259 5.18933 177.774 5.008 177.166 5.008C176.643 5.008 176.19 5.14133 175.806 5.408C175.432 5.664 175.198 6.04267 175.102 6.544H173.726C173.779 5.968 173.971 5.48267 174.302 5.088C174.643 4.69333 175.064 4.39467 175.566 4.192C176.067 3.97867 176.6 3.872 177.166 3.872C178.275 3.872 179.107 4.17067 179.662 4.768C180.227 5.35467 180.51 6.13867 180.51 7.12V12H179.31L179.23 10.576C179.006 11.024 178.675 11.408 178.238 11.728C177.811 12.0373 177.235 12.192 176.51 12.192ZM176.718 11.056C177.23 11.056 177.667 10.9227 178.03 10.656C178.403 10.3893 178.686 10.0427 178.878 9.616C179.07 9.18933 179.166 8.74133 179.166 8.272V8.256H177.134C176.344 8.256 175.784 8.39467 175.454 8.672C175.134 8.93867 174.974 9.27467 174.974 9.68C174.974 10.096 175.123 10.432 175.422 10.688C175.731 10.9333 176.163 11.056 176.718 11.056ZM182.526 12V0.48H183.87V12H182.526ZM189.721 12.192C188.963 12.192 188.281 12.0213 187.673 11.68C187.075 11.328 186.601 10.8427 186.249 10.224C185.907 9.59467 185.737 8.864 185.737 8.032C185.737 7.2 185.907 6.47467 186.249 5.856C186.601 5.22667 187.075 4.74133 187.673 4.4C188.281 4.048 188.963 3.872 189.721 3.872C190.659 3.872 191.449 4.11733 192.089 4.608C192.739 5.09867 193.15 5.75467 193.321 6.576H191.945C191.838 6.08533 191.577 5.70667 191.161 5.44C190.745 5.16267 190.259 5.024 189.705 5.024C189.257 5.024 188.835 5.136 188.441 5.36C188.046 5.584 187.726 5.92 187.481 6.368C187.235 6.816 187.113 7.37067 187.113 8.032C187.113 8.69333 187.235 9.248 187.481 9.696C187.726 10.144 188.046 10.4853 188.441 10.72C188.835 10.944 189.257 11.056 189.705 11.056C190.259 11.056 190.745 10.9227 191.161 10.656C191.577 10.3787 191.838 9.98933 191.945 9.488H193.321C193.161 10.288 192.755 10.9387 192.105 11.44C191.454 11.9413 190.659 12.192 189.721 12.192ZM198.094 12.192C197.155 12.192 196.408 11.9093 195.854 11.344C195.299 10.768 195.022 9.888 195.022 8.704V4.064H196.366V8.56C196.366 10.2133 197.043 11.04 198.398 11.04C199.091 11.04 199.662 10.7947 200.11 10.304C200.568 9.80267 200.798 9.09333 200.798 8.176V4.064H202.142V12H200.926L200.83 10.576C200.584 11.0773 200.216 11.472 199.726 11.76C199.246 12.048 198.702 12.192 198.094 12.192ZM204.354 12V0.48H205.698V12H204.354ZM210.541 12.192C209.88 12.192 209.33 12.08 208.893 11.856C208.456 11.632 208.13 11.3333 207.917 10.96C207.704 10.5867 207.597 10.1813 207.597 9.744C207.597 8.93333 207.906 8.30933 208.525 7.872C209.144 7.43467 209.986 7.216 211.053 7.216H213.197V7.12C213.197 6.42667 213.016 5.904 212.653 5.552C212.29 5.18933 211.805 5.008 211.197 5.008C210.674 5.008 210.221 5.14133 209.837 5.408C209.464 5.664 209.229 6.04267 209.133 6.544H207.757C207.81 5.968 208.002 5.48267 208.333 5.088C208.674 4.69333 209.096 4.39467 209.597 4.192C210.098 3.97867 210.632 3.872 211.197 3.872C212.306 3.872 213.138 4.17067 213.693 4.768C214.258 5.35467 214.541 6.13867 214.541 7.12V12H213.341L213.261 10.576C213.037 11.024 212.706 11.408 212.269 11.728C211.842 12.0373 211.266 12.192 210.541 12.192ZM210.749 11.056C211.261 11.056 211.698 10.9227 212.061 10.656C212.434 10.3893 212.717 10.0427 212.909 9.616C213.101 9.18933 213.197 8.74133 213.197 8.272V8.256H211.165C210.376 8.256 209.816 8.39467 209.485 8.672C209.165 8.93867 209.005 9.27467 209.005 9.68C209.005 10.096 209.154 10.432 209.453 10.688C209.762 10.9333 210.194 11.056 210.749 11.056ZM219.474 12C218.749 12 218.178 11.824 217.762 11.472C217.346 11.12 217.138 10.4853 217.138 9.568V5.2H215.762V4.064H217.138L217.314 2.16H218.482V4.064H220.818V5.2H218.482V9.568C218.482 10.0693 218.584 10.4107 218.786 10.592C218.989 10.7627 219.346 10.848 219.858 10.848H220.69V12H219.474ZM225.875 12.192C225.118 12.192 224.446 12.0213 223.859 11.68C223.272 11.328 222.808 10.8427 222.467 10.224C222.136 9.60533 221.971 8.87467 221.971 8.032C221.971 7.2 222.136 6.47467 222.467 5.856C222.798 5.22667 223.256 4.74133 223.843 4.4C224.44 4.048 225.128 3.872 225.907 3.872C226.675 3.872 227.336 4.048 227.891 4.4C228.456 4.74133 228.888 5.19467 229.187 5.76C229.486 6.32533 229.635 6.93333 229.635 7.584C229.635 7.70133 229.63 7.81867 229.619 7.936C229.619 8.05333 229.619 8.18667 229.619 8.336H223.299C223.331 8.944 223.47 9.45067 223.715 9.856C223.971 10.2507 224.286 10.5493 224.659 10.752C225.043 10.9547 225.448 11.056 225.875 11.056C226.43 11.056 226.894 10.928 227.267 10.672C227.64 10.416 227.912 10.0693 228.083 9.632H229.411C229.198 10.368 228.787 10.9813 228.179 11.472C227.582 11.952 226.814 12.192 225.875 12.192ZM225.875 5.008C225.235 5.008 224.664 5.20533 224.163 5.6C223.672 5.984 223.39 6.54933 223.315 7.296H228.307C228.275 6.58133 228.03 6.02133 227.571 5.616C227.112 5.21067 226.547 5.008 225.875 5.008ZM235.016 12.192C234.227 12.192 233.534 12.0107 232.937 11.648C232.35 11.2853 231.891 10.7893 231.561 10.16C231.241 9.53067 231.081 8.816 231.081 8.016C231.081 7.216 231.246 6.50667 231.577 5.888C231.907 5.25867 232.366 4.768 232.953 4.416C233.539 4.05333 234.233 3.872 235.033 3.872C235.683 3.872 236.259 4.00533 236.761 4.272C237.262 4.53867 237.651 4.912 237.929 5.392V0.48H239.273V12H238.057L237.929 10.688C237.673 11.072 237.305 11.4187 236.825 11.728C236.345 12.0373 235.742 12.192 235.016 12.192ZM235.161 11.024C235.694 11.024 236.163 10.9013 236.569 10.656C236.985 10.4 237.305 10.048 237.529 9.6C237.763 9.152 237.881 8.62933 237.881 8.032C237.881 7.43467 237.763 6.912 237.529 6.464C237.305 6.016 236.985 5.66933 236.569 5.424C236.163 5.168 235.694 5.04 235.161 5.04C234.638 5.04 234.169 5.168 233.753 5.424C233.347 5.66933 233.027 6.016 232.793 6.464C232.569 6.912 232.457 7.43467 232.457 8.032C232.457 8.62933 232.569 9.152 232.793 9.6C233.027 10.048 233.347 10.4 233.753 10.656C234.169 10.9013 234.638 11.024 235.161 11.024ZM4.72 39.192C3.97333 39.192 3.30133 39.0213 2.704 38.68C2.10667 38.3387 1.632 37.8587 1.28 37.24C0.938667 36.6107 0.768 35.8747 0.768 35.032C0.768 34.1893 0.944 33.4587 1.296 32.84C1.648 32.2107 2.12267 31.7253 2.72 31.384C3.328 31.0427 4.00533 30.872 4.752 30.872C5.49867 30.872 6.17067 31.0427 6.768 31.384C7.36533 31.7253 7.83467 32.2107 8.176 32.84C8.528 33.4587 8.704 34.1893 8.704 35.032C8.704 35.8747 8.528 36.6107 8.176 37.24C7.824 37.8587 7.344 38.3387 6.736 38.68C6.13867 39.0213 5.46667 39.192 4.72 39.192ZM4.72 38.04C5.17867 38.04 5.60533 37.928 6 37.704C6.39467 37.48 6.71467 37.144 6.96 36.696C7.20533 36.248 7.328 35.6933 7.328 35.032C7.328 34.3707 7.20533 33.816 6.96 33.368C6.72533 32.92 6.41067 32.584 6.016 32.36C5.62133 32.136 5.2 32.024 4.752 32.024C4.29333 32.024 3.86667 32.136 3.472 32.36C3.07733 32.584 2.75733 32.92 2.512 33.368C2.26667 33.816 2.144 34.3707 2.144 35.032C2.144 35.6933 2.26667 36.248 2.512 36.696C2.75733 37.144 3.072 37.48 3.456 37.704C3.85067 37.928 4.272 38.04 4.72 38.04ZM10.5728 39V31.064H11.7888L11.8688 32.488C12.1248 31.9867 12.4928 31.592 12.9728 31.304C13.4528 31.016 13.9968 30.872 14.6048 30.872C15.5434 30.872 16.2901 31.16 16.8448 31.736C17.4101 32.3013 17.6927 33.176 17.6927 34.36V39H16.3488V34.504C16.3488 32.8507 15.6661 32.024 14.3008 32.024C13.6181 32.024 13.0474 32.2747 12.5888 32.776C12.1408 33.2667 11.9168 33.9707 11.9168 34.888V39H10.5728ZM23.377 39.192C22.6197 39.192 21.937 39.0213 21.329 38.68C20.7317 38.328 20.257 37.8427 19.905 37.224C19.5637 36.5947 19.393 35.864 19.393 35.032C19.393 34.2 19.5637 33.4747 19.905 32.856C20.257 32.2267 20.7317 31.7413 21.329 31.4C21.937 31.048 22.6197 30.872 23.377 30.872C24.3157 30.872 25.105 31.1173 25.745 31.608C26.3957 32.0987 26.8063 32.7547 26.977 33.576H25.601C25.4943 33.0853 25.233 32.7067 24.817 32.44C24.401 32.1627 23.9157 32.024 23.361 32.024C22.913 32.024 22.4917 32.136 22.097 32.36C21.7023 32.584 21.3823 32.92 21.137 33.368C20.8917 33.816 20.769 34.3707 20.769 35.032C20.769 35.6933 20.8917 36.248 21.137 36.696C21.3823 37.144 21.7023 37.4853 22.097 37.72C22.4917 37.944 22.913 38.056 23.361 38.056C23.9157 38.056 24.401 37.9227 24.817 37.656C25.233 37.3787 25.4943 36.9893 25.601 36.488H26.977C26.817 37.288 26.4117 37.9387 25.761 38.44C25.1103 38.9413 24.3157 39.192 23.377 39.192ZM32.422 39.192C31.6647 39.192 30.9927 39.0213 30.406 38.68C29.8193 38.328 29.3553 37.8427 29.014 37.224C28.6833 36.6053 28.518 35.8747 28.518 35.032C28.518 34.2 28.6833 33.4747 29.014 32.856C29.3447 32.2267 29.8033 31.7413 30.39 31.4C30.9873 31.048 31.6753 30.872 32.454 30.872C33.222 30.872 33.8833 31.048 34.438 31.4C35.0033 31.7413 35.4353 32.1947 35.734 32.76C36.0327 33.3253 36.182 33.9333 36.182 34.584C36.182 34.7013 36.1767 34.8187 36.166 34.936C36.166 35.0533 36.166 35.1867 36.166 35.336H29.846C29.878 35.944 30.0167 36.4507 30.262 36.856C30.518 37.2507 30.8327 37.5493 31.206 37.752C31.59 37.9547 31.9953 38.056 32.422 38.056C32.9767 38.056 33.4407 37.928 33.814 37.672C34.1873 37.416 34.4593 37.0693 34.63 36.632H35.958C35.7447 37.368 35.334 37.9813 34.726 38.472C34.1287 38.952 33.3607 39.192 32.422 39.192ZM32.422 32.008C31.782 32.008 31.2113 32.2053 30.71 32.6C30.2193 32.984 29.9367 33.5493 29.862 34.296H34.854C34.822 33.5813 34.5767 33.0213 34.118 32.616C33.6593 32.2107 33.094 32.008 32.422 32.008ZM43.0618 42.52L45.0298 38.232H44.5658L41.4138 31.064H42.8698L45.4938 37.24L48.2778 31.064H49.6698L44.4698 42.52H43.0618ZM53.9544 39.192C53.2077 39.192 52.5357 39.0213 51.9384 38.68C51.341 38.3387 50.8664 37.8587 50.5144 37.24C50.173 36.6107 50.0024 35.8747 50.0024 35.032C50.0024 34.1893 50.1784 33.4587 50.5304 32.84C50.8824 32.2107 51.357 31.7253 51.9544 31.384C52.5624 31.0427 53.2397 30.872 53.9864 30.872C54.733 30.872 55.405 31.0427 56.0024 31.384C56.5997 31.7253 57.069 32.2107 57.4104 32.84C57.7624 33.4587 57.9384 34.1893 57.9384 35.032C57.9384 35.8747 57.7624 36.6107 57.4104 37.24C57.0584 37.8587 56.5784 38.3387 55.9704 38.68C55.373 39.0213 54.701 39.192 53.9544 39.192ZM53.9544 38.04C54.413 38.04 54.8397 37.928 55.2344 37.704C55.629 37.48 55.949 37.144 56.1944 36.696C56.4397 36.248 56.5624 35.6933 56.5624 35.032C56.5624 34.3707 56.4397 33.816 56.1944 33.368C55.9597 32.92 55.645 32.584 55.2504 32.36C54.8557 32.136 54.4344 32.024 53.9864 32.024C53.5277 32.024 53.101 32.136 52.7064 32.36C52.3117 32.584 51.9917 32.92 51.7464 33.368C51.501 33.816 51.3784 34.3707 51.3784 35.032C51.3784 35.6933 51.501 36.248 51.7464 36.696C51.9917 37.144 52.3064 37.48 52.6904 37.704C53.085 37.928 53.5064 38.04 53.9544 38.04ZM62.7031 39.192C61.7645 39.192 61.0178 38.9093 60.4631 38.344C59.9085 37.768 59.6311 36.888 59.6311 35.704V31.064H60.9751V35.56C60.9751 37.2133 61.6525 38.04 63.0071 38.04C63.7005 38.04 64.2711 37.7947 64.7191 37.304C65.1778 36.8027 65.4071 36.0933 65.4071 35.176V31.064H66.7511V39H65.5351L65.4391 37.576C65.1938 38.0773 64.8258 38.472 64.3351 38.76C63.8551 39.048 63.3111 39.192 62.7031 39.192ZM73.1978 39V27.48H74.5418V32.424C74.8084 31.9333 75.1871 31.5547 75.6778 31.288C76.1684 31.0107 76.7018 30.872 77.2778 30.872C78.1951 30.872 78.9311 31.16 79.4858 31.736C80.0404 32.3013 80.3177 33.176 80.3177 34.36V39H78.9898V34.504C78.9898 32.8507 78.3231 32.024 76.9898 32.024C76.2964 32.024 75.7151 32.2747 75.2458 32.776C74.7764 33.2667 74.5418 33.9707 74.5418 34.888V39H73.1978ZM84.994 39.192C84.3327 39.192 83.7833 39.08 83.346 38.856C82.9087 38.632 82.5833 38.3333 82.37 37.96C82.1567 37.5867 82.05 37.1813 82.05 36.744C82.05 35.9333 82.3593 35.3093 82.978 34.872C83.5967 34.4347 84.4393 34.216 85.506 34.216H87.65V34.12C87.65 33.4267 87.4687 32.904 87.106 32.552C86.7433 32.1893 86.258 32.008 85.65 32.008C85.1273 32.008 84.674 32.1413 84.29 32.408C83.9167 32.664 83.682 33.0427 83.586 33.544H82.21C82.2633 32.968 82.4553 32.4827 82.786 32.088C83.1273 31.6933 83.5487 31.3947 84.05 31.192C84.5513 30.9787 85.0847 30.872 85.65 30.872C86.7593 30.872 87.5913 31.1707 88.146 31.768C88.7113 32.3547 88.994 33.1387 88.994 34.12V39H87.794L87.714 37.576C87.49 38.024 87.1593 38.408 86.722 38.728C86.2953 39.0373 85.7193 39.192 84.994 39.192ZM85.202 38.056C85.714 38.056 86.1513 37.9227 86.514 37.656C86.8873 37.3893 87.17 37.0427 87.362 36.616C87.554 36.1893 87.65 35.7413 87.65 35.272V35.256H85.618C84.8287 35.256 84.2687 35.3947 83.938 35.672C83.618 35.9387 83.458 36.2747 83.458 36.68C83.458 37.096 83.6073 37.432 83.906 37.688C84.2153 37.9333 84.6473 38.056 85.202 38.056ZM93.0014 39L89.9934 31.064H91.4014L93.7854 37.704L96.1854 31.064H97.5614L94.5534 39H93.0014ZM102.219 39.192C101.462 39.192 100.79 39.0213 100.203 38.68C99.6162 38.328 99.1522 37.8427 98.8109 37.224C98.4802 36.6053 98.3149 35.8747 98.3149 35.032C98.3149 34.2 98.4802 33.4747 98.8109 32.856C99.1415 32.2267 99.6002 31.7413 100.187 31.4C100.784 31.048 101.472 30.872 102.251 30.872C103.019 30.872 103.68 31.048 104.235 31.4C104.8 31.7413 105.232 32.1947 105.531 32.76C105.83 33.3253 105.979 33.9333 105.979 34.584C105.979 34.7013 105.974 34.8187 105.963 34.936C105.963 35.0533 105.963 35.1867 105.963 35.336H99.6429C99.6749 35.944 99.8135 36.4507 100.059 36.856C100.315 37.2507 100.63 37.5493 101.003 37.752C101.387 37.9547 101.792 38.056 102.219 38.056C102.774 38.056 103.238 37.928 103.611 37.672C103.984 37.416 104.256 37.0693 104.427 36.632H105.755C105.542 37.368 105.131 37.9813 104.523 38.472C103.926 38.952 103.158 39.192 102.219 39.192ZM102.219 32.008C101.579 32.008 101.008 32.2053 100.507 32.6C100.016 32.984 99.7335 33.5493 99.6589 34.296H104.651C104.619 33.5813 104.374 33.0213 103.915 32.616C103.456 32.2107 102.891 32.008 102.219 32.008ZM111.995 42.52V31.064H113.211L113.339 32.376C113.595 31.992 113.957 31.6453 114.427 31.336C114.907 31.0267 115.515 30.872 116.251 30.872C117.04 30.872 117.728 31.0533 118.315 31.416C118.901 31.7787 119.355 32.2747 119.675 32.904C120.005 33.5333 120.171 34.248 120.171 35.048C120.171 35.848 120.005 36.5627 119.675 37.192C119.355 37.8107 118.896 38.3013 118.299 38.664C117.712 39.016 117.024 39.192 116.235 39.192C115.584 39.192 115.003 39.0587 114.491 38.792C113.989 38.5253 113.605 38.152 113.339 37.672V42.52H111.995ZM116.091 38.024C116.624 38.024 117.093 37.9013 117.499 37.656C117.904 37.4 118.224 37.048 118.459 36.6C118.693 36.152 118.811 35.6293 118.811 35.032C118.811 34.4347 118.693 33.912 118.459 33.464C118.224 33.016 117.904 32.6693 117.499 32.424C117.093 32.168 116.624 32.04 116.091 32.04C115.557 32.04 115.088 32.168 114.683 32.424C114.277 32.6693 113.957 33.016 113.723 33.464C113.488 33.912 113.371 34.4347 113.371 35.032C113.371 35.6293 113.488 36.152 113.723 36.6C113.957 37.048 114.277 37.4 114.683 37.656C115.088 37.9013 115.557 38.024 116.091 38.024ZM122.042 39V31.064H123.258L123.37 32.584C123.615 32.0613 123.988 31.6453 124.49 31.336C124.991 31.0267 125.61 30.872 126.346 30.872V32.28H125.978C125.508 32.28 125.076 32.3653 124.682 32.536C124.287 32.696 123.972 32.9733 123.738 33.368C123.503 33.7627 123.386 34.3067 123.386 35V39H122.042ZM131.173 39.192C130.426 39.192 129.754 39.0213 129.157 38.68C128.56 38.3387 128.085 37.8587 127.733 37.24C127.392 36.6107 127.221 35.8747 127.221 35.032C127.221 34.1893 127.397 33.4587 127.749 32.84C128.101 32.2107 128.576 31.7253 129.173 31.384C129.781 31.0427 130.458 30.872 131.205 30.872C131.952 30.872 132.624 31.0427 133.221 31.384C133.818 31.7253 134.288 32.2107 134.629 32.84C134.981 33.4587 135.157 34.1893 135.157 35.032C135.157 35.8747 134.981 36.6107 134.629 37.24C134.277 37.8587 133.797 38.3387 133.189 38.68C132.592 39.0213 131.92 39.192 131.173 39.192ZM131.173 38.04C131.632 38.04 132.058 37.928 132.453 37.704C132.848 37.48 133.168 37.144 133.413 36.696C133.658 36.248 133.781 35.6933 133.781 35.032C133.781 34.3707 133.658 33.816 133.413 33.368C133.178 32.92 132.864 32.584 132.469 32.36C132.074 32.136 131.653 32.024 131.205 32.024C130.746 32.024 130.32 32.136 129.925 32.36C129.53 32.584 129.21 32.92 128.965 33.368C128.72 33.816 128.597 34.3707 128.597 35.032C128.597 35.6933 128.72 36.248 128.965 36.696C129.21 37.144 129.525 37.48 129.909 37.704C130.304 37.928 130.725 38.04 131.173 38.04ZM138.908 39L135.9 31.064H137.308L139.692 37.704L142.092 31.064H143.468L140.46 39H138.908ZM145.779 29.304C145.513 29.304 145.289 29.2187 145.107 29.048C144.937 28.8667 144.851 28.6427 144.851 28.376C144.851 28.12 144.937 27.9067 145.107 27.736C145.289 27.5653 145.513 27.48 145.779 27.48C146.035 27.48 146.254 27.5653 146.435 27.736C146.617 27.9067 146.707 28.12 146.707 28.376C146.707 28.6427 146.617 28.8667 146.435 29.048C146.254 29.2187 146.035 29.304 145.779 29.304ZM145.107 39V31.064H146.451V39H145.107ZM152.391 39.192C151.602 39.192 150.909 39.0107 150.312 38.648C149.725 38.2853 149.266 37.7893 148.936 37.16C148.616 36.5307 148.456 35.816 148.456 35.016C148.456 34.216 148.621 33.5067 148.952 32.888C149.282 32.2587 149.741 31.768 150.328 31.416C150.914 31.0533 151.608 30.872 152.408 30.872C153.058 30.872 153.634 31.0053 154.136 31.272C154.637 31.5387 155.026 31.912 155.304 32.392V27.48H156.648V39H155.432L155.304 37.688C155.048 38.072 154.68 38.4187 154.2 38.728C153.72 39.0373 153.117 39.192 152.391 39.192ZM152.536 38.024C153.069 38.024 153.538 37.9013 153.944 37.656C154.36 37.4 154.68 37.048 154.904 36.6C155.138 36.152 155.256 35.6293 155.256 35.032C155.256 34.4347 155.138 33.912 154.904 33.464C154.68 33.016 154.36 32.6693 153.944 32.424C153.538 32.168 153.069 32.04 152.536 32.04C152.013 32.04 151.544 32.168 151.128 32.424C150.722 32.6693 150.402 33.016 150.168 33.464C149.944 33.912 149.832 34.4347 149.832 35.032C149.832 35.6293 149.944 36.152 150.168 36.6C150.402 37.048 150.722 37.4 151.128 37.656C151.544 37.9013 152.013 38.024 152.536 38.024ZM162.406 39.192C161.649 39.192 160.977 39.0213 160.39 38.68C159.804 38.328 159.34 37.8427 158.998 37.224C158.668 36.6053 158.502 35.8747 158.502 35.032C158.502 34.2 158.668 33.4747 158.998 32.856C159.329 32.2267 159.788 31.7413 160.374 31.4C160.972 31.048 161.66 30.872 162.438 30.872C163.206 30.872 163.868 31.048 164.422 31.4C164.988 31.7413 165.42 32.1947 165.718 32.76C166.017 33.3253 166.166 33.9333 166.166 34.584C166.166 34.7013 166.161 34.8187 166.15 34.936C166.15 35.0533 166.15 35.1867 166.15 35.336H159.83C159.862 35.944 160.001 36.4507 160.246 36.856C160.502 37.2507 160.817 37.5493 161.19 37.752C161.574 37.9547 161.98 38.056 162.406 38.056C162.961 38.056 163.425 37.928 163.798 37.672C164.172 37.416 164.444 37.0693 164.614 36.632H165.942C165.729 37.368 165.318 37.9813 164.71 38.472C164.113 38.952 163.345 39.192 162.406 39.192ZM162.406 32.008C161.766 32.008 161.196 32.2053 160.694 32.6C160.204 32.984 159.921 33.5493 159.846 34.296H164.838C164.806 33.5813 164.561 33.0213 164.102 32.616C163.644 32.2107 163.078 32.008 162.406 32.008ZM171.548 39.192C170.758 39.192 170.065 39.0107 169.468 38.648C168.881 38.2853 168.422 37.7893 168.092 37.16C167.772 36.5307 167.612 35.816 167.612 35.016C167.612 34.216 167.777 33.5067 168.108 32.888C168.438 32.2587 168.897 31.768 169.484 31.416C170.07 31.0533 170.764 30.872 171.564 30.872C172.214 30.872 172.79 31.0053 173.292 31.272C173.793 31.5387 174.182 31.912 174.46 32.392V27.48H175.804V39H174.588L174.46 37.688C174.204 38.072 173.836 38.4187 173.356 38.728C172.876 39.0373 172.273 39.192 171.548 39.192ZM171.692 38.024C172.225 38.024 172.694 37.9013 173.1 37.656C173.516 37.4 173.836 37.048 174.06 36.6C174.294 36.152 174.412 35.6293 174.412 35.032C174.412 34.4347 174.294 33.912 174.06 33.464C173.836 33.016 173.516 32.6693 173.1 32.424C172.694 32.168 172.225 32.04 171.692 32.04C171.169 32.04 170.7 32.168 170.284 32.424C169.878 32.6693 169.558 33.016 169.324 33.464C169.1 33.912 168.988 34.4347 168.988 35.032C168.988 35.6293 169.1 36.152 169.324 36.6C169.558 37.048 169.878 37.4 170.284 37.656C170.7 37.9013 171.169 38.024 171.692 38.024ZM184.869 39.192C184.208 39.192 183.658 39.08 183.221 38.856C182.784 38.632 182.458 38.3333 182.245 37.96C182.032 37.5867 181.925 37.1813 181.925 36.744C181.925 35.9333 182.234 35.3093 182.853 34.872C183.472 34.4347 184.314 34.216 185.381 34.216H187.525V34.12C187.525 33.4267 187.344 32.904 186.981 32.552C186.618 32.1893 186.133 32.008 185.525 32.008C185.002 32.008 184.549 32.1413 184.165 32.408C183.792 32.664 183.557 33.0427 183.461 33.544H182.085C182.138 32.968 182.33 32.4827 182.661 32.088C183.002 31.6933 183.424 31.3947 183.925 31.192C184.426 30.9787 184.96 30.872 185.525 30.872C186.634 30.872 187.466 31.1707 188.021 31.768C188.586 32.3547 188.869 33.1387 188.869 34.12V39H187.669L187.589 37.576C187.365 38.024 187.034 38.408 186.597 38.728C186.17 39.0373 185.594 39.192 184.869 39.192ZM185.077 38.056C185.589 38.056 186.026 37.9227 186.389 37.656C186.762 37.3893 187.045 37.0427 187.237 36.616C187.429 36.1893 187.525 35.7413 187.525 35.272V35.256H185.493C184.704 35.256 184.144 35.3947 183.813 35.672C183.493 35.9387 183.333 36.2747 183.333 36.68C183.333 37.096 183.482 37.432 183.781 37.688C184.09 37.9333 184.522 38.056 185.077 38.056ZM194.485 39.192C193.696 39.192 193.003 39.0107 192.405 38.648C191.819 38.2853 191.36 37.7893 191.029 37.16C190.709 36.5307 190.549 35.816 190.549 35.016C190.549 34.216 190.715 33.5067 191.045 32.888C191.376 32.2587 191.835 31.768 192.421 31.416C193.008 31.0533 193.701 30.872 194.501 30.872C195.152 30.872 195.728 31.0053 196.229 31.272C196.731 31.5387 197.12 31.912 197.397 32.392V27.48H198.741V39H197.525L197.397 37.688C197.141 38.072 196.773 38.4187 196.293 38.728C195.813 39.0373 195.211 39.192 194.485 39.192ZM194.629 38.024C195.163 38.024 195.632 37.9013 196.037 37.656C196.453 37.4 196.773 37.048 196.997 36.6C197.232 36.152 197.349 35.6293 197.349 35.032C197.349 34.4347 197.232 33.912 196.997 33.464C196.773 33.016 196.453 32.6693 196.037 32.424C195.632 32.168 195.163 32.04 194.629 32.04C194.107 32.04 193.637 32.168 193.221 32.424C192.816 32.6693 192.496 33.016 192.261 33.464C192.037 33.912 191.925 34.4347 191.925 35.032C191.925 35.6293 192.037 36.152 192.261 36.6C192.496 37.048 192.816 37.4 193.221 37.656C193.637 37.9013 194.107 38.024 194.629 38.024ZM204.532 39.192C203.743 39.192 203.049 39.0107 202.452 38.648C201.865 38.2853 201.407 37.7893 201.076 37.16C200.756 36.5307 200.596 35.816 200.596 35.016C200.596 34.216 200.761 33.5067 201.092 32.888C201.423 32.2587 201.881 31.768 202.468 31.416C203.055 31.0533 203.748 30.872 204.548 30.872C205.199 30.872 205.775 31.0053 206.276 31.272C206.777 31.5387 207.167 31.912 207.444 32.392V27.48H208.788V39H207.572L207.444 37.688C207.188 38.072 206.82 38.4187 206.34 38.728C205.86 39.0373 205.257 39.192 204.532 39.192ZM204.676 38.024C205.209 38.024 205.679 37.9013 206.084 37.656C206.5 37.4 206.82 37.048 207.044 36.6C207.279 36.152 207.396 35.6293 207.396 35.032C207.396 34.4347 207.279 33.912 207.044 33.464C206.82 33.016 206.5 32.6693 206.084 32.424C205.679 32.168 205.209 32.04 204.676 32.04C204.153 32.04 203.684 32.168 203.268 32.424C202.863 32.6693 202.543 33.016 202.308 33.464C202.084 33.912 201.972 34.4347 201.972 35.032C201.972 35.6293 202.084 36.152 202.308 36.6C202.543 37.048 202.863 37.4 203.268 37.656C203.684 37.9013 204.153 38.024 204.676 38.024ZM210.979 39V31.064H212.195L212.307 32.584C212.552 32.0613 212.926 31.6453 213.427 31.336C213.928 31.0267 214.547 30.872 215.283 30.872V32.28H214.915C214.446 32.28 214.014 32.3653 213.619 32.536C213.224 32.696 212.91 32.9733 212.675 33.368C212.44 33.7627 212.323 34.3067 212.323 35V39H210.979ZM220.063 39.192C219.305 39.192 218.633 39.0213 218.047 38.68C217.46 38.328 216.996 37.8427 216.655 37.224C216.324 36.6053 216.159 35.8747 216.159 35.032C216.159 34.2 216.324 33.4747 216.655 32.856C216.985 32.2267 217.444 31.7413 218.031 31.4C218.628 31.048 219.316 30.872 220.095 30.872C220.863 30.872 221.524 31.048 222.079 31.4C222.644 31.7413 223.076 32.1947 223.375 32.76C223.673 33.3253 223.823 33.9333 223.823 34.584C223.823 34.7013 223.817 34.8187 223.807 34.936C223.807 35.0533 223.807 35.1867 223.807 35.336H217.487C217.519 35.944 217.657 36.4507 217.903 36.856C218.159 37.2507 218.473 37.5493 218.847 37.752C219.231 37.9547 219.636 38.056 220.063 38.056C220.617 38.056 221.081 37.928 221.455 37.672C221.828 37.416 222.1 37.0693 222.271 36.632H223.599C223.385 37.368 222.975 37.9813 222.367 38.472C221.769 38.952 221.001 39.192 220.063 39.192ZM220.063 32.008C219.423 32.008 218.852 32.2053 218.351 32.6C217.86 32.984 217.577 33.5493 217.503 34.296H222.495C222.463 33.5813 222.217 33.0213 221.759 32.616C221.3 32.2107 220.735 32.008 220.063 32.008ZM228.644 39.192C227.695 39.192 226.905 38.952 226.276 38.472C225.647 37.992 225.279 37.3413 225.172 36.52H226.548C226.633 36.936 226.852 37.2987 227.204 37.608C227.567 37.9067 228.052 38.056 228.66 38.056C229.225 38.056 229.641 37.9387 229.908 37.704C230.175 37.4587 230.308 37.1707 230.308 36.84C230.308 36.36 230.132 36.04 229.78 35.88C229.439 35.72 228.953 35.576 228.324 35.448C227.897 35.3627 227.471 35.24 227.044 35.08C226.617 34.92 226.26 34.696 225.972 34.408C225.684 34.1093 225.54 33.72 225.54 33.24C225.54 32.5467 225.796 31.9813 226.308 31.544C226.831 31.096 227.535 30.872 228.42 30.872C229.263 30.872 229.951 31.0853 230.484 31.512C231.028 31.928 231.343 32.5253 231.428 33.304H230.1C230.047 32.8987 229.871 32.584 229.572 32.36C229.284 32.1253 228.895 32.008 228.404 32.008C227.924 32.008 227.551 32.1093 227.284 32.312C227.028 32.5147 226.9 32.7813 226.9 33.112C226.9 33.432 227.065 33.6827 227.396 33.864C227.737 34.0453 228.196 34.2 228.772 34.328C229.263 34.4347 229.727 34.568 230.164 34.728C230.612 34.8773 230.975 35.1067 231.252 35.416C231.54 35.7147 231.684 36.152 231.684 36.728C231.695 37.4427 231.423 38.0347 230.868 38.504C230.324 38.9627 229.583 39.192 228.644 39.192ZM236.644 39.192C235.695 39.192 234.905 38.952 234.276 38.472C233.647 37.992 233.279 37.3413 233.172 36.52H234.548C234.633 36.936 234.852 37.2987 235.204 37.608C235.567 37.9067 236.052 38.056 236.66 38.056C237.225 38.056 237.641 37.9387 237.908 37.704C238.175 37.4587 238.308 37.1707 238.308 36.84C238.308 36.36 238.132 36.04 237.78 35.88C237.439 35.72 236.953 35.576 236.324 35.448C235.897 35.3627 235.471 35.24 235.044 35.08C234.617 34.92 234.26 34.696 233.972 34.408C233.684 34.1093 233.54 33.72 233.54 33.24C233.54 32.5467 233.796 31.9813 234.308 31.544C234.831 31.096 235.535 30.872 236.42 30.872C237.263 30.872 237.951 31.0853 238.484 31.512C239.028 31.928 239.343 32.5253 239.428 33.304H238.1C238.047 32.8987 237.871 32.584 237.572 32.36C237.284 32.1253 236.895 32.008 236.404 32.008C235.924 32.008 235.551 32.1093 235.284 32.312C235.028 32.5147 234.9 32.7813 234.9 33.112C234.9 33.432 235.065 33.6827 235.396 33.864C235.737 34.0453 236.196 34.2 236.772 34.328C237.263 34.4347 237.727 34.568 238.164 34.728C238.612 34.8773 238.975 35.1067 239.252 35.416C239.54 35.7147 239.684 36.152 239.684 36.728C239.695 37.4427 239.423 38.0347 238.868 38.504C238.324 38.9627 237.583 39.192 236.644 39.192ZM242.068 39.08C241.801 39.08 241.577 38.9947 241.396 38.824C241.225 38.6427 241.14 38.424 241.14 38.168C241.14 37.912 241.225 37.6987 241.396 37.528C241.577 37.3467 241.801 37.256 242.068 37.256C242.324 37.256 242.537 37.3467 242.708 37.528C242.889 37.6987 242.98 37.912 242.98 38.168C242.98 38.424 242.889 38.6427 242.708 38.824C242.537 38.9947 242.324 39.08 242.068 39.08Z" fill="#707070"/>
</svg>
