<svg width="69" height="13" viewBox="0 0 69 13" fill="none" xmlns="http://www.w3.org/2000/svg">
<path d="M4.752 12.192C3.93067 12.192 3.216 12.0427 2.608 11.744C2 11.4453 1.53067 11.0293 1.2 10.496C0.869333 9.96267 0.704 9.344 0.704 8.64H2.112C2.112 9.07733 2.21333 9.48267 2.416 9.856C2.61867 10.2187 2.912 10.512 3.296 10.736C3.69067 10.9493 4.176 11.056 4.752 11.056C5.50933 11.056 6.096 10.8747 6.512 10.512C6.928 10.1493 7.136 9.696 7.136 9.152C7.136 8.704 7.04 8.34667 6.848 8.08C6.656 7.80267 6.39467 7.57867 6.064 7.408C5.744 7.23733 5.37067 7.088 4.944 6.96C4.528 6.832 4.09067 6.688 3.632 6.528C2.768 6.22933 2.128 5.86133 1.712 5.424C1.296 4.976 1.088 4.39467 1.088 3.68C1.07733 3.08267 1.216 2.55467 1.504 2.096C1.792 1.62667 2.19733 1.264 2.72 1.008C3.25333 0.741333 3.88267 0.608 4.608 0.608C5.32267 0.608 5.94133 0.741333 6.464 1.008C6.99733 1.27467 7.408 1.64267 7.696 2.112C7.99467 2.58133 8.14933 3.11467 8.16 3.712H6.752C6.752 3.40267 6.672 3.09867 6.512 2.8C6.352 2.49067 6.10667 2.24 5.776 2.048C5.456 1.856 5.05067 1.76 4.56 1.76C3.952 1.74933 3.45067 1.904 3.056 2.224C2.672 2.544 2.48 2.98667 2.48 3.552C2.48 4.032 2.61333 4.4 2.88 4.656C3.15733 4.912 3.54133 5.12533 4.032 5.296C4.52267 5.456 5.088 5.64267 5.728 5.856C6.26133 6.048 6.74133 6.272 7.168 6.528C7.59467 6.784 7.92533 7.11467 8.16 7.52C8.40533 7.92533 8.528 8.44267 8.528 9.072C8.528 9.60533 8.38933 10.112 8.112 10.592C7.83467 11.0613 7.41333 11.4453 6.848 11.744C6.29333 12.0427 5.59467 12.192 4.752 12.192ZM10.434 12V0.799999H11.778V5.744H17.586V0.799999H18.93V12H17.586V6.848H11.778V12H10.434ZM21.2934 12V0.799999H22.6374V12H21.2934ZM25.0121 12V0.799999H28.6921C29.5668 0.799999 30.2868 0.943999 30.8521 1.232C31.4175 1.52 31.8335 1.90933 32.1001 2.4C32.3775 2.89067 32.5161 3.44533 32.5161 4.064C32.5161 4.672 32.3828 5.22133 32.1161 5.712C31.8495 6.20267 31.4335 6.59733 30.8681 6.896C30.3028 7.184 29.5775 7.328 28.6921 7.328H26.3561V12H25.0121ZM26.3561 6.192H28.6601C29.5561 6.192 30.1908 6.00533 30.5641 5.632C30.9481 5.248 31.1401 4.72533 31.1401 4.064C31.1401 3.392 30.9481 2.86933 30.5641 2.496C30.1908 2.112 29.5561 1.92 28.6601 1.92H26.3561V6.192ZM34.2778 12V0.799999H37.9578C38.8324 0.799999 39.5524 0.943999 40.1178 1.232C40.6831 1.52 41.0991 1.90933 41.3658 2.4C41.6431 2.89067 41.7818 3.44533 41.7818 4.064C41.7818 4.672 41.6484 5.22133 41.3818 5.712C41.1151 6.20267 40.6991 6.59733 40.1338 6.896C39.5684 7.184 38.8431 7.328 37.9578 7.328H35.6218V12H34.2778ZM35.6218 6.192H37.9258C38.8218 6.192 39.4564 6.00533 39.8298 5.632C40.2138 5.248 40.4058 4.72533 40.4058 4.064C40.4058 3.392 40.2138 2.86933 39.8298 2.496C39.4564 2.112 38.8218 1.92 37.9258 1.92H35.6218V6.192ZM43.5434 12V0.799999H44.8874V12H43.5434ZM47.2621 12V0.799999H48.6061L54.5741 9.776V0.799999H55.9181V12H54.5741L48.6061 3.024V12H47.2621ZM63.1094 12.192C62.064 12.192 61.1467 11.952 60.3574 11.472C59.568 10.9813 58.9547 10.304 58.5174 9.44C58.08 8.56533 57.8614 7.55733 57.8614 6.416C57.8614 5.27467 58.08 4.26667 58.5174 3.392C58.9654 2.51733 59.5947 1.83467 60.4054 1.344C61.2267 0.853333 62.192 0.608 63.3014 0.608C64.56 0.608 65.6054 0.912 66.4374 1.52C67.28 2.128 67.824 2.96533 68.0694 4.032H66.5174C66.368 3.36 66.0107 2.82667 65.4454 2.432C64.8907 2.03733 64.176 1.84 63.3014 1.84C62.48 1.84 61.7654 2.02667 61.1574 2.4C60.5494 2.76267 60.0747 3.28533 59.7334 3.968C59.4027 4.65067 59.2374 5.46667 59.2374 6.416C59.2374 7.36533 59.4027 8.18133 59.7334 8.864C60.064 9.54667 60.5227 10.0747 61.1094 10.448C61.696 10.8107 62.3787 10.992 63.1574 10.992C64.352 10.992 65.2534 10.6453 65.8614 9.952C66.4694 9.248 66.816 8.288 66.9014 7.072H63.6694V6.016H68.2774V12H67.0454L66.9334 10.16C66.528 10.8107 66.032 11.312 65.4454 11.664C64.8587 12.016 64.08 12.192 63.1094 12.192Z" fill="black"/>
</svg>
