<svg width="38" height="16" viewBox="0 0 38 16" fill="none" xmlns="http://www.w3.org/2000/svg">
<path d="M4.752 12.192C3.93067 12.192 3.216 12.0427 2.608 11.744C2 11.4453 1.53067 11.0293 1.2 10.496C0.869333 9.96267 0.704 9.344 0.704 8.64H2.112C2.112 9.07733 2.21333 9.48267 2.416 9.856C2.61867 10.2187 2.912 10.512 3.296 10.736C3.69067 10.9493 4.176 11.056 4.752 11.056C5.50933 11.056 6.096 10.8747 6.512 10.512C6.928 10.1493 7.136 9.696 7.136 9.152C7.136 8.704 7.04 8.34667 6.848 8.08C6.656 7.80267 6.39467 7.57867 6.064 7.408C5.744 7.23733 5.37067 7.088 4.944 6.96C4.528 6.832 4.09067 6.688 3.632 6.528C2.768 6.22933 2.128 5.86133 1.712 5.424C1.296 4.976 1.088 4.39467 1.088 3.68C1.07733 3.08267 1.216 2.55467 1.504 2.096C1.792 1.62667 2.19733 1.264 2.72 1.008C3.25333 0.741333 3.88267 0.608 4.608 0.608C5.32267 0.608 5.94133 0.741333 6.464 1.008C6.99733 1.27467 7.408 1.64267 7.696 2.112C7.99467 2.58133 8.14933 3.11467 8.16 3.712H6.752C6.752 3.40267 6.672 3.09867 6.512 2.8C6.352 2.49067 6.10667 2.24 5.776 2.048C5.456 1.856 5.05067 1.76 4.56 1.76C3.952 1.74933 3.45067 1.904 3.056 2.224C2.672 2.544 2.48 2.98667 2.48 3.552C2.48 4.032 2.61333 4.4 2.88 4.656C3.15733 4.912 3.54133 5.12533 4.032 5.296C4.52267 5.456 5.088 5.64267 5.728 5.856C6.26133 6.048 6.74133 6.272 7.168 6.528C7.59467 6.784 7.92533 7.11467 8.16 7.52C8.40533 7.92533 8.528 8.44267 8.528 9.072C8.528 9.60533 8.38933 10.112 8.112 10.592C7.83467 11.0613 7.41333 11.4453 6.848 11.744C6.29333 12.0427 5.59467 12.192 4.752 12.192ZM10.354 12V0.48H11.698V5.424C11.9647 4.93333 12.3433 4.55467 12.834 4.288C13.3247 4.01067 13.858 3.872 14.434 3.872C15.3513 3.872 16.0873 4.16 16.642 4.736C17.1967 5.30133 17.474 6.176 17.474 7.36V12H16.146V7.504C16.146 5.85067 15.4793 5.024 14.146 5.024C13.4527 5.024 12.8713 5.27467 12.402 5.776C11.9327 6.26667 11.698 6.97067 11.698 7.888V12H10.354ZM23.1263 12.192C22.3796 12.192 21.7076 12.0213 21.1103 11.68C20.5129 11.3387 20.0383 10.8587 19.6863 10.24C19.3449 9.61067 19.1743 8.87467 19.1743 8.032C19.1743 7.18933 19.3503 6.45867 19.7023 5.84C20.0543 5.21067 20.5289 4.72533 21.1263 4.384C21.7343 4.04267 22.4116 3.872 23.1583 3.872C23.9049 3.872 24.5769 4.04267 25.1743 4.384C25.7716 4.72533 26.2409 5.21067 26.5823 5.84C26.9343 6.45867 27.1103 7.18933 27.1103 8.032C27.1103 8.87467 26.9343 9.61067 26.5823 10.24C26.2303 10.8587 25.7503 11.3387 25.1423 11.68C24.5449 12.0213 23.8729 12.192 23.1263 12.192ZM23.1263 11.04C23.5849 11.04 24.0116 10.928 24.4063 10.704C24.8009 10.48 25.1209 10.144 25.3663 9.696C25.6116 9.248 25.7343 8.69333 25.7343 8.032C25.7343 7.37067 25.6116 6.816 25.3663 6.368C25.1316 5.92 24.8169 5.584 24.4223 5.36C24.0276 5.136 23.6063 5.024 23.1583 5.024C22.6996 5.024 22.2729 5.136 21.8783 5.36C21.4836 5.584 21.1636 5.92 20.9183 6.368C20.6729 6.816 20.5503 7.37067 20.5503 8.032C20.5503 8.69333 20.6729 9.248 20.9183 9.696C21.1636 10.144 21.4783 10.48 21.8623 10.704C22.2569 10.928 22.6783 11.04 23.1263 11.04ZM28.979 15.52V4.064H30.195L30.323 5.376C30.579 4.992 30.9417 4.64533 31.411 4.336C31.891 4.02667 32.499 3.872 33.235 3.872C34.0243 3.872 34.7123 4.05333 35.299 4.416C35.8857 4.77867 36.339 5.27467 36.659 5.904C36.9897 6.53333 37.155 7.248 37.155 8.048C37.155 8.848 36.9897 9.56267 36.659 10.192C36.339 10.8107 35.8803 11.3013 35.283 11.664C34.6963 12.016 34.0083 12.192 33.219 12.192C32.5683 12.192 31.987 12.0587 31.475 11.792C30.9737 11.5253 30.5897 11.152 30.323 10.672V15.52H28.979ZM33.075 11.024C33.6083 11.024 34.0777 10.9013 34.483 10.656C34.8883 10.4 35.2083 10.048 35.443 9.6C35.6777 9.152 35.795 8.62933 35.795 8.032C35.795 7.43467 35.6777 6.912 35.443 6.464C35.2083 6.016 34.8883 5.66933 34.483 5.424C34.0777 5.168 33.6083 5.04 33.075 5.04C32.5417 5.04 32.0723 5.168 31.667 5.424C31.2617 5.66933 30.9417 6.016 30.707 6.464C30.4723 6.912 30.355 7.43467 30.355 8.032C30.355 8.62933 30.4723 9.152 30.707 9.6C30.9417 10.048 31.2617 10.4 31.667 10.656C32.0723 10.9013 32.5417 11.024 33.075 11.024Z" fill="black"/>
</svg>
