<svg width="76" height="13" viewBox="0 0 76 13" fill="none" xmlns="http://www.w3.org/2000/svg">
<path d="M4.752 12.192C3.93067 12.192 3.216 12.0427 2.608 11.744C2 11.4453 1.53067 11.0293 1.2 10.496C0.869333 9.96267 0.704 9.344 0.704 8.64H2.112C2.112 9.07733 2.21333 9.48267 2.416 9.856C2.61867 10.2187 2.912 10.512 3.296 10.736C3.69067 10.9493 4.176 11.056 4.752 11.056C5.50933 11.056 6.096 10.8747 6.512 10.512C6.928 10.1493 7.136 9.696 7.136 9.152C7.136 8.704 7.04 8.34667 6.848 8.08C6.656 7.80267 6.39467 7.57867 6.064 7.408C5.744 7.23733 5.37067 7.088 4.944 6.96C4.528 6.832 4.09067 6.688 3.632 6.528C2.768 6.22933 2.128 5.86133 1.712 5.424C1.296 4.976 1.088 4.39467 1.088 3.68C1.07733 3.08267 1.216 2.55467 1.504 2.096C1.792 1.62667 2.19733 1.264 2.72 1.008C3.25333 0.741333 3.88267 0.608 4.608 0.608C5.32267 0.608 5.94133 0.741333 6.464 1.008C6.99733 1.27467 7.408 1.64267 7.696 2.112C7.99467 2.58133 8.14933 3.11467 8.16 3.712H6.752C6.752 3.40267 6.672 3.09867 6.512 2.8C6.352 2.49067 6.10667 2.24 5.776 2.048C5.456 1.856 5.05067 1.76 4.56 1.76C3.952 1.74933 3.45067 1.904 3.056 2.224C2.672 2.544 2.48 2.98667 2.48 3.552C2.48 4.032 2.61333 4.4 2.88 4.656C3.15733 4.912 3.54133 5.12533 4.032 5.296C4.52267 5.456 5.088 5.64267 5.728 5.856C6.26133 6.048 6.74133 6.272 7.168 6.528C7.59467 6.784 7.92533 7.11467 8.16 7.52C8.40533 7.92533 8.528 8.44267 8.528 9.072C8.528 9.60533 8.38933 10.112 8.112 10.592C7.83467 11.0613 7.41333 11.4453 6.848 11.744C6.29333 12.0427 5.59467 12.192 4.752 12.192ZM14.482 12.192C13.714 12.192 13.0153 12.0427 12.386 11.744C11.7673 11.4347 11.2713 10.96 10.898 10.32C10.5247 9.68 10.338 8.864 10.338 7.872V0.799999H11.682V7.888C11.682 8.976 11.9433 9.76533 12.466 10.256C12.9887 10.7467 13.6713 10.992 14.514 10.992C15.3567 10.992 16.034 10.7467 16.546 10.256C17.058 9.76533 17.314 8.976 17.314 7.888V0.799999H18.658V7.872C18.658 8.864 18.4713 9.68 18.098 10.32C17.7247 10.96 17.2233 11.4347 16.594 11.744C15.9647 12.0427 15.2607 12.192 14.482 12.192ZM20.934 12V0.799999H24.87C25.6593 0.799999 26.31 0.927999 26.822 1.184C27.3447 1.42933 27.734 1.77067 27.99 2.208C28.246 2.63467 28.374 3.11467 28.374 3.648C28.374 4.37333 28.1767 4.944 27.782 5.36C27.398 5.776 26.934 6.064 26.39 6.224C26.806 6.29867 27.1847 6.464 27.526 6.72C27.8673 6.976 28.134 7.296 28.326 7.68C28.5287 8.064 28.63 8.48533 28.63 8.944C28.63 9.50933 28.4913 10.0267 28.214 10.496C27.9367 10.9547 27.526 11.3227 26.982 11.6C26.438 11.8667 25.7767 12 24.998 12H20.934ZM22.278 5.696H24.774C25.4887 5.696 26.038 5.53067 26.422 5.2C26.806 4.85867 26.998 4.38933 26.998 3.792C26.998 3.22667 26.806 2.77333 26.422 2.432C26.0487 2.09067 25.4833 1.92 24.726 1.92H22.278V5.696ZM22.278 10.88H24.854C25.622 10.88 26.214 10.704 26.63 10.352C27.046 9.98933 27.254 9.488 27.254 8.848C27.254 8.21867 27.0353 7.71733 26.598 7.344C26.1607 6.96 25.5687 6.768 24.822 6.768H22.278V10.88ZM32.9174 12V1.904H29.5734V0.799999H37.6054V1.904H34.2614V12H32.9174ZM43.7564 12.192C42.6577 12.192 41.6924 11.952 40.8604 11.472C40.039 10.9813 39.3937 10.2987 38.9244 9.424C38.4657 8.54933 38.2364 7.54133 38.2364 6.4C38.2364 5.25867 38.4657 4.256 38.9244 3.392C39.3937 2.51733 40.039 1.83467 40.8604 1.344C41.6924 0.853333 42.6577 0.608 43.7564 0.608C44.8657 0.608 45.831 0.853333 46.6524 1.344C47.4844 1.83467 48.1297 2.51733 48.5884 3.392C49.047 4.256 49.2764 5.25867 49.2764 6.4C49.2764 7.54133 49.047 8.54933 48.5884 9.424C48.1297 10.2987 47.4844 10.9813 46.6524 11.472C45.831 11.952 44.8657 12.192 43.7564 12.192ZM43.7564 11.008C44.5777 11.008 45.2977 10.8267 45.9164 10.464C46.5457 10.0907 47.031 9.56267 47.3724 8.88C47.7244 8.18667 47.9004 7.36 47.9004 6.4C47.9004 5.44 47.7244 4.61867 47.3724 3.936C47.031 3.25333 46.5457 2.73067 45.9164 2.368C45.2977 1.99467 44.5777 1.808 43.7564 1.808C42.935 1.808 42.2097 1.99467 41.5804 2.368C40.9617 2.73067 40.4764 3.25333 40.1244 3.936C39.783 4.61867 39.6124 5.44 39.6124 6.4C39.6124 7.36 39.783 8.18667 40.1244 8.88C40.4764 9.56267 40.9617 10.0907 41.5804 10.464C42.2097 10.8267 42.935 11.008 43.7564 11.008ZM53.2611 12V1.904H49.9171V0.799999H57.9491V1.904H54.6051V12H53.2611ZM57.6206 12L61.7486 0.799999H63.1726L67.2846 12H65.8606L64.8366 9.12H60.0686L59.0286 12H57.6206ZM60.4686 8.032H64.4366L62.4526 2.496L60.4686 8.032ZM68.9496 12V0.799999H70.2936V10.928H75.5096V12H68.9496Z" fill="black"/>
</svg>
