<svg width="44" height="13" viewBox="0 0 44 13" fill="none" xmlns="http://www.w3.org/2000/svg">
<path d="M3.696 12V2.448H0.432V0.799999H9.024V2.448H5.744V12H3.696ZM15.3829 12.192C14.2629 12.192 13.2815 11.9467 12.4389 11.456C11.6069 10.9653 10.9509 10.288 10.4709 9.424C10.0015 8.54933 9.76688 7.54133 9.76688 6.4C9.76688 5.25867 10.0015 4.256 10.4709 3.392C10.9509 2.51733 11.6069 1.83467 12.4389 1.344C13.2815 0.853333 14.2629 0.608 15.3829 0.608C16.4922 0.608 17.4682 0.853333 18.3109 1.344C19.1535 1.83467 19.8095 2.51733 20.2789 3.392C20.7482 4.256 20.9829 5.25867 20.9829 6.4C20.9829 7.54133 20.7482 8.54933 20.2789 9.424C19.8095 10.288 19.1535 10.9653 18.3109 11.456C17.4682 11.9467 16.4922 12.192 15.3829 12.192ZM15.3829 10.352C16.4495 10.352 17.2975 10 17.9269 9.296C18.5669 8.592 18.8869 7.62667 18.8869 6.4C18.8869 5.17333 18.5669 4.208 17.9269 3.504C17.2975 2.8 16.4495 2.448 15.3829 2.448C14.3162 2.448 13.4629 2.8 12.8229 3.504C12.1829 4.208 11.8629 5.17333 11.8629 6.4C11.8629 7.62667 12.1829 8.592 12.8229 9.296C13.4629 10 14.3162 10.352 15.3829 10.352ZM24.9929 12V2.448H21.7289V0.799999H30.3209V2.448H27.0409V12H24.9929ZM29.9305 12L34.0265 0.799999H36.3305L40.4265 12H38.2505L37.3545 9.408H32.9865L32.0745 12H29.9305ZM33.5465 7.808H36.7945L35.1625 3.152L33.5465 7.808ZM41.8213 12V0.48H43.8693V12H41.8213Z" fill="black"/>
</svg>
