<svg width="121" height="13" viewBox="0 0 121 13" fill="none" xmlns="http://www.w3.org/2000/svg">
<path d="M4.408 12.192C3.58667 12.192 2.84533 12.032 2.184 11.712C1.52267 11.3813 0.994667 10.8853 0.6 10.224C0.216 9.56267 0.024 8.72533 0.024 7.712V0.799999H2.072V7.728C2.072 8.60267 2.28 9.25333 2.696 9.68C3.12267 10.1067 3.70933 10.32 4.456 10.32C5.192 10.32 5.77333 10.1067 6.2 9.68C6.62667 9.25333 6.84 8.60267 6.84 7.728V0.799999H8.888V7.712C8.888 8.72533 8.68533 9.56267 8.28 10.224C7.87467 10.8853 7.33067 11.3813 6.648 11.712C5.976 12.032 5.22933 12.192 4.408 12.192ZM10.9786 12V0.799999H15.1226C16.0186 0.799999 16.76 0.949333 17.3466 1.248C17.9333 1.54667 18.3706 1.95733 18.6586 2.48C18.9466 3.00267 19.0906 3.58933 19.0906 4.24C19.0906 4.85867 18.952 5.42933 18.6746 5.952C18.3973 6.464 17.9653 6.88 17.3786 7.2C16.792 7.50933 16.04 7.664 15.1226 7.664H13.0266V12H10.9786ZM13.0266 6H14.9946C15.7093 6 16.2213 5.84533 16.5306 5.536C16.8506 5.216 17.0106 4.784 17.0106 4.24C17.0106 3.68533 16.8506 3.25333 16.5306 2.944C16.2213 2.624 15.7093 2.464 14.9946 2.464H13.0266V6ZM20.6974 12V0.799999H24.5214C25.8334 0.799999 26.9107 1.03467 27.7534 1.504C28.6067 1.96267 29.236 2.61333 29.6414 3.456C30.0574 4.288 30.2654 5.26933 30.2654 6.4C30.2654 7.53067 30.0574 8.51733 29.6414 9.36C29.236 10.192 28.6067 10.8427 27.7534 11.312C26.9107 11.7707 25.8334 12 24.5214 12H20.6974ZM22.7454 10.24H24.4254C25.364 10.24 26.1054 10.0907 26.6494 9.792C27.1934 9.48267 27.5827 9.04533 27.8174 8.48C28.052 7.904 28.1694 7.21067 28.1694 6.4C28.1694 5.6 28.052 4.912 27.8174 4.336C27.5827 3.76 27.1934 3.31733 26.6494 3.008C26.1054 2.69867 25.364 2.544 24.4254 2.544H22.7454V10.24ZM30.6336 12L34.7296 0.799999H37.0336L41.1296 12H38.9536L38.0576 9.408H33.6896L32.7776 12H30.6336ZM34.2496 7.808H37.4976L35.8656 3.152L34.2496 7.808ZM43.9929 12V2.448H40.7289V0.799999H49.3209V2.448H46.0409V12H43.9929ZM50.838 12V0.799999H58.15V2.448H52.886V5.52H57.67V7.12H52.886V10.352H58.15V12H50.838ZM66.5085 12V2.448H63.2445V0.799999H71.8365V2.448H68.5565V12H66.5085ZM78.1954 12.192C77.0754 12.192 76.094 11.9467 75.2514 11.456C74.4194 10.9653 73.7634 10.288 73.2834 9.424C72.814 8.54933 72.5794 7.54133 72.5794 6.4C72.5794 5.25867 72.814 4.256 73.2834 3.392C73.7634 2.51733 74.4194 1.83467 75.2514 1.344C76.094 0.853333 77.0754 0.608 78.1954 0.608C79.3047 0.608 80.2807 0.853333 81.1234 1.344C81.966 1.83467 82.622 2.51733 83.0914 3.392C83.5607 4.256 83.7954 5.25867 83.7954 6.4C83.7954 7.54133 83.5607 8.54933 83.0914 9.424C82.622 10.288 81.966 10.9653 81.1234 11.456C80.2807 11.9467 79.3047 12.192 78.1954 12.192ZM78.1954 10.352C79.262 10.352 80.11 10 80.7394 9.296C81.3794 8.592 81.6994 7.62667 81.6994 6.4C81.6994 5.17333 81.3794 4.208 80.7394 3.504C80.11 2.8 79.262 2.448 78.1954 2.448C77.1287 2.448 76.2754 2.8 75.6354 3.504C74.9954 4.208 74.6754 5.17333 74.6754 6.4C74.6754 7.62667 74.9954 8.592 75.6354 9.296C76.2754 10 77.1287 10.352 78.1954 10.352ZM87.8054 12V2.448H84.5414V0.799999H93.1334V2.448H89.8534V12H87.8054ZM92.743 12L96.839 0.799999H99.143L103.239 12H101.063L100.167 9.408H95.799L94.887 12H92.743ZM96.359 7.808H99.607L97.975 3.152L96.359 7.808ZM104.682 12V0.799999H106.73V10.4H111.69V12H104.682ZM116.834 12.192C116.013 12.192 115.287 12.0533 114.658 11.776C114.029 11.488 113.533 11.0827 113.17 10.56C112.807 10.0267 112.621 9.38133 112.61 8.624H114.77C114.791 9.14667 114.978 9.58933 115.33 9.952C115.693 10.304 116.189 10.48 116.818 10.48C117.362 10.48 117.794 10.352 118.114 10.096C118.434 9.82933 118.594 9.47733 118.594 9.04C118.594 8.58133 118.45 8.224 118.162 7.968C117.885 7.712 117.511 7.504 117.042 7.344C116.573 7.184 116.071 7.01333 115.538 6.832C114.674 6.53333 114.013 6.14933 113.554 5.68C113.106 5.21067 112.882 4.58667 112.882 3.808C112.871 3.14667 113.026 2.58133 113.346 2.112C113.677 1.632 114.125 1.264 114.69 1.008C115.255 0.741333 115.906 0.608 116.642 0.608C117.389 0.608 118.045 0.741333 118.61 1.008C119.186 1.27467 119.634 1.648 119.954 2.128C120.285 2.608 120.461 3.17867 120.482 3.84H118.29C118.279 3.44533 118.125 3.09867 117.826 2.8C117.538 2.49067 117.133 2.336 116.61 2.336C116.162 2.32533 115.783 2.43733 115.474 2.672C115.175 2.896 115.026 3.22667 115.026 3.664C115.026 4.03733 115.143 4.336 115.378 4.56C115.613 4.77333 115.933 4.95467 116.338 5.104C116.743 5.25333 117.207 5.41333 117.73 5.584C118.285 5.776 118.791 6 119.25 6.256C119.709 6.512 120.077 6.85333 120.354 7.28C120.631 7.696 120.77 8.23467 120.77 8.896C120.77 9.48267 120.621 10.0267 120.322 10.528C120.023 11.0293 119.581 11.4347 118.994 11.744C118.407 12.0427 117.687 12.192 116.834 12.192Z" fill="black"/>
</svg>
